<?xml version="1.0" encoding="UTF-8" standalone="no"?>
<!-- Created with Inkscape (http://www.inkscape.org/) -->

<svg
   width="210mm"
   height="297mm"
   viewBox="0 0 210 297"
   version="1.1"
   id="svg5"
   inkscape:version="1.1.1 (3bf5ae0d25, 2021-09-20)"
   sodipodi:docname="core.svg"
   xmlns:inkscape="http://www.inkscape.org/namespaces/inkscape"
   xmlns:sodipodi="http://sodipodi.sourceforge.net/DTD/sodipodi-0.dtd"
   xmlns="http://www.w3.org/2000/svg"
   xmlns:svg="http://www.w3.org/2000/svg">
  <sodipodi:namedview
     id="namedview7"
     pagecolor="#ffffff"
     bordercolor="#000000"
     borderopacity="0.25"
     inkscape:pageshadow="2"
     inkscape:pageopacity="0.0"
     inkscape:pagecheckerboard="0"
     inkscape:document-units="mm"
     showgrid="false"
     inkscape:zoom="0.58974467"
     inkscape:cx="97.499822"
     inkscape:cy="463.76002"
     inkscape:window-width="1600"
     inkscape:window-height="847"
     inkscape:window-x="-8"
     inkscape:window-y="-8"
     inkscape:window-maximized="1"
     inkscape:current-layer="layer1" />
  <defs
     id="defs2" />
  <g
     inkscape:label="Layer 1"
     inkscape:groupmode="layer"
     id="layer1">
    <g
       transform="matrix(0.03527778,0,0,-0.03527778,-197.93142,205.71336)"
       fill="#000000"
       stroke="none"
       id="g820">
      <path
         d="m 9380,5699 c -69,-13 -168,-68 -222,-123 -226,-230 -159,-620 131,-764 l 75,-37 h 146 146 l 75,37 c 103,51 200,158 223,248 4,14 -7,-3 -24,-38 -43,-86 -122,-165 -207,-205 -63,-30 -76,-32 -183,-34 -136,-2 -212,14 -289,60 -102,61 -173,163 -207,297 -17,68 -15,170 5,223 9,24 16,27 56,27 29,0 45,-4 45,-12 0,-9 4,-8 10,2 5,8 10,22 10,30 0,12 -2,12 -9,2 -5,-9 -24,-12 -54,-10 l -47,3 27,53 c 35,70 100,137 120,121 11,-10 11,-15 -3,-30 -9,-10 -14,-24 -11,-31 4,-9 6,-8 6,3 1,19 29,45 38,35 3,-3 -1,-14 -9,-23 -18,-21 -31,-43 -25,-43 2,0 18,20 35,44 38,53 115,111 180,137 26,10 40,18 32,18 -26,1 -93,-35 -148,-78 -37,-30 -59,-40 -72,-36 -48,15 -6,56 99,95 35,14 88,22 149,25 52,3 98,7 100,10 9,8 -150,3 -198,-6 z"
         id="path786" />
      <path
         d="m 9484,5651 c -198,-51 -331,-268 -295,-482 23,-138 98,-247 213,-310 60,-32 68,-34 163,-34 88,0 107,3 158,27 74,35 148,111 189,196 32,64 33,72 33,187 0,114 -2,123 -32,187 -67,141 -188,228 -326,234 -40,2 -86,0 -103,-5 z m 159,-303 c 35,-18 86,-148 57,-148 -5,0 -10,9 -10,20 0,11 -12,42 -27,69 l -28,49 -56,1 c -64,1 -81,-9 -113,-64 l -22,-40 30,-55 30,-56 62,-2 c 62,-2 62,-2 85,35 12,21 24,40 25,42 2,1 7,0 13,-3 6,-4 4,-14 -7,-27 -9,-11 -16,-22 -14,-25 2,-3 -6,-14 -17,-23 -15,-13 -39,-18 -86,-19 l -66,-1 -29,47 c -42,65 -46,87 -24,129 38,71 58,84 121,82 32,-1 66,-6 76,-11 z"
         id="path788" />
      <path
         d="m 8210,5325 c -371,-74 -592,-420 -514,-803 38,-188 164,-356 330,-439 45,-22 87,-42 95,-45 10,-3 3,-25 -28,-84 -49,-93 -87,-203 -103,-295 l -11,-66 -33,31 c -18,17 -44,41 -59,52 -16,14 -31,42 -42,80 -40,147 -81,216 -160,276 -130,98 -275,89 -321,-19 -35,-82 -8,-177 94,-332 34,-51 62,-97 62,-102 0,-5 4,-9 10,-9 15,0 -4,39 -64,133 -78,119 -96,161 -96,230 0,63 17,107 52,131 30,21 124,21 174,0 114,-48 177,-125 220,-271 l 28,-93 -25,-26 c -32,-35 -54,-46 -119,-60 -41,-9 -47,-13 -24,-13 44,-1 93,17 137,51 43,34 36,37 125,-46 l 42,-40 2,-181 1,-180 7,140 c 9,189 46,330 120,461 25,45 27,56 20,90 -14,58 -12,76 12,114 l 22,35 7,-25 c 13,-46 9,-82 -12,-112 -12,-16 -19,-31 -17,-33 2,-3 25,24 51,58 228,312 646,479 1030,412 248,-43 446,-149 614,-330 180,-192 270,-422 275,-697 l 2,-123 6,130 c 3,72 3,169 0,217 l -5,87 32,28 31,29 35,-32 c 36,-33 92,-55 137,-53 15,0 5,6 -25,13 -69,17 -114,42 -127,71 -9,20 -7,40 11,102 42,143 93,212 193,263 107,53 208,38 243,-36 36,-77 8,-175 -95,-329 -48,-72 -65,-105 -52,-104 11,0 128,187 154,244 26,60 30,155 8,200 -53,105 -220,98 -343,-15 -64,-59 -98,-119 -128,-227 -20,-75 -47,-123 -68,-123 -4,0 -18,39 -31,87 -48,182 -184,399 -322,514 -199,166 -416,252 -670,266 l -117,6 5,96 c 8,132 -13,242 -66,348 -129,260 -425,405 -710,348 z m 284,-25 c 188,-48 353,-185 426,-354 29,-70 25,-69 -17,4 -59,101 -163,199 -264,248 -46,23 -111,49 -144,57 -70,18 -231,20 -307,4 -62,-13 -198,-75 -248,-113 -31,-24 -35,-25 -39,-10 -7,38 147,131 271,164 98,25 223,26 322,0 z m -5,-55 c 220,-52 411,-242 467,-464 15,-59 18,-241 4,-254 -3,-2 -30,-8 -60,-11 l -56,-7 4,94 c 7,156 -37,268 -147,378 -103,102 -218,149 -366,149 -98,-1 -150,-12 -233,-51 -125,-60 -227,-183 -267,-323 -24,-81 -16,-229 14,-306 53,-131 168,-244 300,-293 l 61,-23 -31,-42 c -17,-23 -37,-42 -44,-42 -30,0 -175,83 -229,132 -71,63 -146,174 -176,260 -28,79 -37,233 -21,320 7,35 30,101 53,147 75,156 245,294 415,335 77,19 233,19 312,1 z m -71,-441 c 21,-20 76,-122 76,-139 -1,-24 -17,-65 -26,-65 -5,0 -6,-4 -3,-10 3,-5 1,-10 -4,-10 -6,0 -11,-6 -11,-14 0,-29 -78,-94 -94,-79 -3,4 -37,6 -75,5 l -68,-1 -43,79 c -23,43 -43,81 -44,84 -2,10 39,96 47,96 4,0 7,6 7,13 0,20 32,54 55,59 11,2 52,3 91,2 55,-1 76,-5 92,-20 z m 897,-324 c 116,-31 255,-92 338,-147 89,-59 220,-187 277,-272 94,-140 162,-323 174,-471 l 6,-65 -19,65 c -96,343 -352,610 -693,724 -191,64 -427,73 -623,22 -120,-31 -279,-107 -371,-176 -51,-39 -69,-48 -75,-38 -6,9 -9,6 -9,-10 0,-13 -4,-21 -9,-18 -5,3 -12,-4 -16,-17 -6,-20 -8,-18 -20,18 -7,22 -14,48 -14,58 -2,29 17,19 24,-14 4,-17 9,-28 12,-25 3,3 0,20 -6,37 -11,31 -9,35 31,76 97,99 280,202 432,243 127,35 163,39 326,35 120,-2 173,-8 235,-25 z"
         id="path790" />
      <path
         d="m 8234,4795 c -17,-14 -84,-122 -84,-136 0,-15 69,-139 78,-140 23,-5 153,-4 160,0 5,3 26,35 47,70 l 38,64 -39,73 c -21,41 -44,72 -51,70 -6,-3 -14,-2 -17,1 -9,10 -119,8 -132,-2 z"
         id="path792" />
      <path
         d="m 9880,4767 c -13,-7 -29,-25 -34,-39 -13,-37 22,-111 84,-178 26,-29 56,-70 66,-92 29,-64 103,-108 184,-108 20,0 63,-9 95,-20 143,-49 224,-7 184,97 -6,15 -28,50 -48,78 -21,27 -41,66 -45,85 -9,51 -39,95 -87,127 -38,25 -53,28 -128,29 -47,1 -111,9 -141,18 -65,19 -97,20 -130,3 z m 21,-16 c -20,-13 -17,-55 8,-94 69,-112 322,-279 456,-301 33,-6 46,-3 68,14 15,12 27,17 27,12 0,-26 -15,-42 -46,-52 -115,-38 -421,137 -525,299 -33,52 -38,105 -11,120 21,13 43,14 23,2 z m 321,-21 c 21,-6 54,-26 74,-45 37,-35 37,-35 18,-57 -17,-20 -17,-21 -1,-9 28,22 42,-1 42,-67 0,-43 -6,-67 -24,-95 -18,-30 -26,-36 -33,-25 -7,10 -8,8 -4,-5 3,-11 0,-20 -9,-23 -22,-9 -87,25 -93,48 -3,14 -7,16 -12,8 -6,-9 -15,-8 -39,6 -17,10 -31,22 -31,26 0,4 -6,8 -13,8 -7,0 -35,20 -62,44 l -50,45 26,48 c 20,38 37,54 79,76 59,30 77,32 132,17 z"
         id="path794" />
      <path
         d="m 10959,4493 c -8,-9 -39,-27 -69,-40 -62,-28 -96,-57 -147,-126 -38,-51 -38,-51 7,-77 12,-6 33,5 80,42 36,28 85,60 110,71 47,20 110,73 110,92 0,12 -53,55 -68,55 -5,0 -16,-7 -23,-17 z m 56,-15 c 24,-22 25,-24 10,-46 -9,-12 -42,-35 -73,-51 -31,-16 -85,-50 -120,-75 -44,-33 -69,-45 -83,-41 -27,9 -24,22 22,81 42,55 93,94 123,94 8,0 30,13 48,30 40,36 40,36 73,8 z"
         id="path796" />
      <path
         d="m 8863,4295 c -383,-69 -692,-351 -795,-723 -18,-65 -22,-104 -22,-252 0,-162 2,-182 27,-263 85,-275 267,-491 517,-614 529,-261 1172,-28 1399,506 56,132 66,190 65,381 0,162 -2,182 -28,264 -133,434 -526,719 -985,715 -58,0 -138,-7 -178,-14 z m 368,-10 c 403,-70 731,-388 804,-780 23,-122 16,-328 -15,-434 -26,-93 -76,-202 -127,-278 -51,-78 -174,-206 -248,-258 -466,-331 -1120,-214 -1434,255 -109,163 -161,334 -161,532 0,163 27,283 98,428 134,274 409,480 715,535 98,18 267,18 368,0 z"
         id="path798" />
      <path
         d="m 8955,4130 c -147,-16 -308,-77 -409,-155 -25,-19 -53,-35 -61,-35 -8,0 -15,-6 -15,-13 0,-7 -18,-31 -41,-52 -93,-90 -181,-253 -214,-395 -22,-97 -20,-278 5,-375 62,-241 218,-432 445,-545 148,-73 201,-85 385,-85 184,0 236,12 385,85 118,58 204,125 280,217 260,316 249,783 -26,1077 -32,35 -59,69 -59,75 0,6 -5,11 -11,11 -6,0 -42,20 -79,45 -174,115 -384,168 -585,145 z m 158,-426 c 29,-10 59,-22 67,-29 8,-7 20,-14 25,-16 35,-13 157,-95 166,-110 5,-11 8,-91 7,-191 l -3,-173 -62,-40 c -154,-99 -228,-138 -263,-138 -53,0 -315,157 -330,197 -5,16 -10,92 -10,170 0,180 5,189 120,248 14,7 43,23 65,37 39,24 127,59 153,60 7,1 37,-6 65,-15 z"
         id="path800" />
      <path
         d="m 8954,3637 c -174,-99 -183,-105 -190,-154 -11,-73 -1,-258 16,-277 7,-10 43,-33 79,-52 36,-19 89,-47 116,-64 49,-28 108,-39 120,-21 3,6 18,16 33,24 15,7 45,24 67,37 22,13 54,30 70,38 66,33 65,31 65,198 0,122 -3,156 -15,167 -14,15 -258,158 -266,156 -2,0 -45,-24 -95,-52 z"
         id="path802" />
      <path
         d="m 7042,3620 c -40,-11 -76,-21 -81,-24 -4,-3 -29,1 -56,9 -132,40 -270,-14 -342,-134 -17,-29 -35,-71 -39,-94 -5,-31 -20,-57 -56,-96 -68,-75 -108,-136 -124,-189 -42,-139 86,-185 311,-111 67,22 122,33 165,34 70,2 139,26 197,71 34,26 92,116 93,144 1,8 30,44 66,80 76,76 124,163 124,226 0,35 -5,47 -31,68 -17,14 -36,26 -42,26 -7,1 -34,3 -62,5 -31,3 -78,-3 -123,-15 z m 207,-15 c 77,-40 43,-150 -88,-288 -47,-49 -76,-89 -79,-105 -6,-51 -97,-153 -121,-138 -5,3 -11,-1 -14,-8 -7,-19 -69,-36 -127,-36 h -45 l 68,35 c 98,50 244,151 233,162 -2,2 -30,-16 -63,-40 -239,-181 -552,-278 -638,-197 -34,32 -32,73 5,146 33,65 124,173 136,162 4,-4 -20,-36 -53,-72 -34,-36 -68,-84 -78,-110 -16,-42 -16,-48 -2,-69 20,-31 62,-39 134,-26 268,50 723,380 723,525 0,62 -66,80 -184,49 -72,-19 -87,-12 -20,9 64,19 177,20 213,1 z m -328,-21 c 57,-18 116,-68 147,-123 l 23,-41 -38,-1 -38,-2 40,-6 c 34,-5 40,-10 43,-33 2,-16 0,-28 -5,-28 -4,0 -28,-18 -52,-40 -35,-32 -49,-38 -75,-35 -27,4 -28,4 -6,-3 23,-8 19,-12 -61,-64 -120,-79 -226,-130 -250,-123 -28,9 -85,89 -105,147 -51,154 47,323 211,364 54,14 95,11 166,-12 z m 301,-7 c 20,-29 -23,-118 -86,-176 -24,-23 -26,-23 -26,-5 0,24 -51,113 -79,138 -11,11 -21,22 -21,26 0,6 37,18 105,34 31,7 98,-4 107,-17 z m -678,-378 c 9,-26 34,-65 54,-87 l 38,-41 -45,-16 c -65,-22 -153,-30 -179,-16 -26,14 -29,49 -6,93 22,42 106,131 114,121 4,-4 14,-29 24,-54 z"
         id="path804" />
      <path
         d="m 10856,3363 c -3,-10 -15,-70 -27,-133 -12,-63 -28,-124 -36,-137 -10,-15 -39,-30 -86,-44 -131,-39 -125,-40 -206,36 -39,37 -71,63 -71,58 0,-14 154,-161 212,-202 l 47,-34 -19,-28 c -38,-53 -70,-133 -69,-174 l 1,-40 8,48 c 8,48 46,133 74,170 12,16 23,18 70,12 l 55,-7 11,-55 c 7,-30 9,-70 5,-89 -5,-27 -3,-34 10,-34 10,0 15,-9 15,-27 0,-63 18,-54 29,13 26,150 31,164 55,164 19,0 21,-4 18,-39 -2,-22 0,-46 5,-55 6,-11 9,0 8,36 0,48 2,53 33,71 17,10 58,21 90,24 77,7 107,-15 107,-80 0,-55 -22,-88 -92,-137 -28,-19 -72,-55 -97,-78 l -47,-44 -119,7 c -143,9 -217,1 -199,-21 10,-12 9,-13 -5,-8 -43,16 -117,-34 -147,-101 -30,-65 -25,-80 49,-157 37,-39 60,-68 52,-65 -72,28 -129,39 -173,34 -48,-6 -50,-6 -98,44 -56,58 -137,99 -194,99 -81,0 -140,-64 -133,-146 3,-43 3,-44 -42,-63 -80,-33 -111,-34 -181,-5 -35,15 -85,42 -111,60 -73,52 -124,74 -167,74 -33,0 -47,-7 -76,-35 -19,-20 -35,-46 -36,-58 0,-15 -8,-6 -26,31 -14,30 -21,57 -17,62 5,4 45,19 89,34 84,27 213,99 302,167 147,114 282,305 341,484 29,87 51,195 41,195 -5,0 -9,-11 -9,-24 0,-40 -49,-197 -85,-274 -143,-303 -430,-523 -768,-587 -102,-19 -292,-19 -394,0 -226,43 -415,146 -579,316 -121,127 -197,259 -248,430 -14,46 -25,78 -25,70 -1,-8 9,-49 20,-90 44,-158 162,-348 290,-465 85,-79 227,-170 316,-204 40,-15 73,-33 73,-40 0,-7 -10,-36 -21,-63 l -22,-50 -17,29 c -54,88 -128,94 -239,19 -37,-26 -98,-61 -136,-78 -76,-34 -102,-34 -187,3 -45,19 -46,21 -41,54 8,48 -21,109 -64,135 -73,46 -204,-1 -283,-100 -28,-35 -35,-39 -57,-30 -37,14 -75,11 -144,-10 l -62,-20 61,62 c 58,58 62,66 62,108 0,35 -7,56 -29,86 -27,38 -82,73 -114,73 -9,0 -17,6 -20,13 -3,9 -45,12 -168,12 h -164 l -43,43 c -23,23 -67,58 -96,77 -84,54 -112,140 -61,190 27,28 73,32 138,14 61,-17 80,-43 74,-98 -5,-37 -4,-41 4,-21 6,14 8,39 6,57 -5,29 -3,32 29,38 19,3 39,3 45,0 15,-10 30,-53 40,-115 l 8,-55 -3,61 c -2,33 -11,75 -20,92 -19,37 -20,36 91,47 59,6 62,5 82,-24 30,-41 60,-113 70,-164 8,-37 9,-39 10,-11 1,40 -21,105 -59,165 l -29,47 52,40 c 69,52 193,169 187,175 -3,3 -50,-35 -105,-84 -110,-99 -162,-129 -219,-129 -21,0 -69,-7 -107,-17 -66,-16 -70,-15 -134,5 -104,35 -162,25 -191,-29 -32,-64 0,-143 80,-196 27,-18 71,-54 98,-80 l 49,-48 157,3 157,2 -30,-22 c -16,-12 -49,-41 -72,-64 -42,-40 -43,-43 -43,-108 0,-82 15,-114 68,-144 50,-28 118,-29 195,-2 56,20 120,26 151,14 12,-5 16,-21 16,-70 0,-35 5,-74 11,-88 27,-58 158,-82 273,-51 l 65,18 43,-27 c 24,-15 65,-43 93,-63 l 50,-35 101,4 c 93,3 104,5 144,33 24,17 81,66 126,110 63,61 90,97 117,152 19,40 37,82 40,94 5,18 10,20 34,14 162,-41 352,-51 491,-26 40,7 75,11 77,9 2,-1 6,-15 10,-29 6,-25 4,-26 -42,-32 -26,-4 -88,-20 -138,-36 -88,-29 -89,-29 -35,-24 30,3 57,9 60,13 9,12 103,40 136,40 28,0 36,-6 60,-47 15,-26 45,-66 66,-89 53,-57 31,-67 -35,-16 -60,46 -118,82 -131,82 -6,0 17,-16 50,-36 32,-19 89,-65 127,-102 37,-36 67,-63 67,-58 0,4 -11,17 -25,28 -27,21 -33,48 -12,48 18,0 59,-45 50,-54 -5,-4 -1,-6 7,-5 8,2 31,-8 50,-23 19,-15 49,-32 65,-38 l 30,-12 -50,-19 -50,-19 -15,22 c -38,55 -47,57 -13,2 54,-88 65,-103 48,-67 -8,17 -11,34 -7,37 19,12 119,46 134,46 21,0 63,-80 102,-193 23,-66 25,-81 14,-94 -33,-40 -148,-60 -148,-26 0,9 -2,14 -5,11 -3,-2 2,-36 10,-74 19,-91 19,-273 0,-347 -45,-173 -152,-265 -295,-254 -36,2 -74,8 -85,12 -19,6 -19,6 -1,-6 11,-6 49,-14 85,-16 60,-4 77,0 185,41 141,54 185,82 227,147 111,173 100,479 -27,732 l -34,67 h 48 c 38,0 57,7 97,35 28,19 67,47 88,61 l 37,27 68,-17 c 95,-23 168,-21 222,7 55,27 70,55 70,133 0,47 4,63 16,68 30,12 91,6 149,-14 160,-55 265,6 265,154 0,54 -3,61 -37,95 -21,20 -54,49 -73,64 l -35,27 157,-2 156,-2 41,42 c 22,23 65,58 96,78 69,46 98,92 98,152 0,38 -5,50 -31,74 -39,34 -82,36 -162,8 -56,-20 -100,-25 -100,-13 0,26 52,54 146,79 57,16 104,31 104,35 0,4 -46,19 -101,34 -56,16 -112,38 -125,49 -19,17 -29,46 -50,156 -14,74 -27,136 -29,138 -2,2 -6,-5 -9,-15 z m 75,-289 c 16,-15 55,-33 109,-48 47,-13 78,-26 70,-29 -8,-3 -48,-15 -88,-27 -107,-31 -116,-45 -143,-208 -7,-40 -14,-71 -15,-69 -2,2 -11,41 -19,88 -27,148 -42,166 -155,194 -39,9 -72,20 -75,24 -2,4 35,18 83,32 99,28 124,53 137,136 3,27 12,71 18,98 l 11,50 21,-108 c 16,-84 27,-113 46,-133 z M 7469,2501 c 40,-28 63,-66 68,-112 4,-43 4,-45 -70,-118 -73,-72 -75,-73 -114,-66 -84,14 -130,87 -117,182 5,37 13,48 54,78 90,66 127,73 179,36 z m 3226,-8 c 82,-52 95,-71 95,-135 0,-34 -7,-72 -16,-89 -16,-31 -81,-68 -119,-69 -11,0 -51,31 -92,72 -62,61 -73,78 -73,106 0,56 44,119 100,141 31,12 54,6 105,-26 z M 7974,2356 c 13,-8 32,-36 42,-61 17,-45 17,-48 -3,-88 -12,-23 -50,-76 -86,-118 l -64,-75 -68,7 c -42,4 -77,14 -93,26 -33,24 -47,78 -37,140 6,39 16,56 63,103 84,84 180,110 246,66 z m 2248,-7 c 23,-12 63,-44 89,-72 49,-50 49,-50 49,-118 0,-37 -3,-75 -6,-84 -10,-25 -75,-53 -133,-56 -54,-3 -54,-3 -104,51 -27,30 -65,78 -85,107 -29,44 -34,59 -29,89 17,104 109,139 219,83 z m -1628,-79 c 49,-44 55,-81 20,-132 -29,-41 -118,-123 -193,-177 -42,-29 -49,-31 -138,-31 -103,0 -108,2 -197,67 -57,42 -64,45 -111,40 -27,-2 -59,-8 -70,-13 -13,-5 0,15 32,55 29,34 60,75 69,90 l 16,27 47,-23 c 25,-12 54,-23 65,-23 12,0 16,-5 12,-15 -3,-8 -1,-15 4,-15 22,0 189,78 234,110 115,78 157,86 210,40 z m 965,10 c 24,-11 64,-35 90,-54 44,-33 206,-106 233,-106 10,0 9,3 -2,10 -18,11 -19,10 60,37 l 65,22 15,-22 c 8,-12 39,-51 69,-86 31,-37 46,-61 35,-56 -10,4 -42,10 -71,12 -50,5 -54,4 -129,-51 l -77,-56 h -97 c -92,0 -99,1 -146,32 -70,47 -201,179 -209,211 -10,38 12,85 49,108 39,24 60,24 115,-1 z"
         id="path806" />
      <path
         d="m 9064,2016 c -47,-21 -101,-83 -126,-145 -19,-48 -22,-74 -22,-181 0,-113 3,-134 32,-220 17,-52 48,-124 69,-160 46,-79 153,-190 211,-219 154,-79 292,-18 343,151 19,60 21,87 16,182 -8,162 -53,291 -150,422 -107,146 -264,217 -373,170 z m 183,-329 c 3,-4 18,-7 33,-7 35,0 51,-15 88,-82 34,-61 37,-77 23,-106 -4,-9 -16,-33 -25,-53 -16,-32 -21,-36 -49,-32 -18,2 -41,4 -52,4 -10,0 -25,5 -32,11 -7,6 -13,7 -13,2 -1,-15 -80,140 -80,156 0,9 7,26 16,38 8,12 12,22 9,22 -3,0 1,13 10,28 16,26 54,36 72,19 z"
         id="path812" />
      <path
         d="m 9194,1662 c -4,-10 -6,-20 -6,-24 1,-5 -2,-8 -7,-8 -5,0 -11,-14 -15,-31 -4,-24 2,-45 26,-91 27,-50 68,-94 68,-72 0,3 6,2 13,-3 6,-5 25,-9 42,-9 26,1 31,7 48,51 18,49 18,50 -4,98 -27,56 -65,101 -79,92 -5,-3 -25,-2 -44,3 -29,8 -36,7 -42,-6 z"
         id="path814" />
      <path
         d="m 8685,1075 c -99,-37 -155,-118 -155,-225 0,-81 27,-138 83,-180 48,-35 134,-63 174,-57 28,4 28,4 -3,6 -95,4 -201,68 -231,138 -39,94 2,184 111,245 17,9 27,17 21,18 -5,0 -25,-9 -42,-20 -18,-11 -33,-16 -33,-12 0,4 -4,0 -10,-8 -5,-8 -12,-11 -16,-7 -4,4 3,19 17,33 107,114 345,87 415,-47 24,-47 16,-56 -17,-16 -17,20 -39,42 -50,48 -11,5 1,-10 26,-35 25,-25 45,-51 45,-58 0,-10 2,-10 9,1 11,17 7,-94 -4,-130 -14,-43 -46,-79 -98,-109 -59,-34 -57,-40 2,-10 121,61 159,233 76,345 -13,17 -47,44 -76,60 -65,35 -178,44 -244,20 z"
         id="path816" />
      <path
         d="m 8682,965 c -116,-59 -134,-179 -40,-261 126,-111 348,-32 348,123 0,86 -78,153 -188,160 -58,4 -74,1 -120,-22 z"
         id="path818" />
    </g>
  </g>
</svg>
