<?xml version="1.0" encoding="UTF-8" standalone="no"?>
<!-- Created with Inkscape (http://www.inkscape.org/) -->

<svg
   width="210mm"
   height="297mm"
   viewBox="0 0 210 297"
   version="1.1"
   id="svg5"
   inkscape:version="1.1.1 (3bf5ae0d25, 2021-09-20)"
   sodipodi:docname="cash.svg"
   xmlns:inkscape="http://www.inkscape.org/namespaces/inkscape"
   xmlns:sodipodi="http://sodipodi.sourceforge.net/DTD/sodipodi-0.dtd"
   xmlns:xlink="http://www.w3.org/1999/xlink"
   xmlns="http://www.w3.org/2000/svg"
   xmlns:svg="http://www.w3.org/2000/svg">
  <sodipodi:namedview
     id="namedview7"
     pagecolor="#ffffff"
     bordercolor="#000000"
     borderopacity="0.25"
     inkscape:pageshadow="2"
     inkscape:pageopacity="0.0"
     inkscape:pagecheckerboard="0"
     inkscape:document-units="mm"
     showgrid="false"
     inkscape:zoom="0.58974467"
     inkscape:cx="397.62971"
     inkscape:cy="562.10767"
     inkscape:window-width="1600"
     inkscape:window-height="847"
     inkscape:window-x="-8"
     inkscape:window-y="-8"
     inkscape:window-maximized="1"
     inkscape:current-layer="layer1" />
  <defs
     id="defs2">
    <linearGradient
       id="a17f7adb-619f-4eca-9f9e-ffa615402df6-198"
       x1="316.9"
       y1="512.48"
       x2="316.9"
       y2="321.58"
       gradientUnits="userSpaceOnUse">
      <stop
         offset="0"
         stop-color="gray"
         stop-opacity="0.25"
         id="stop9" />
      <stop
         offset="0.54"
         stop-color="gray"
         stop-opacity="0.12"
         id="stop11" />
      <stop
         offset="1"
         stop-color="gray"
         stop-opacity="0.1"
         id="stop13" />
    </linearGradient>
    <linearGradient
       id="afa9d3b0-698e-4c8c-85f1-7e162fccf1ba-199"
       x1="552.73"
       y1="709.84"
       x2="622.29"
       y2="709.84"
       xlink:href="#a17f7adb-619f-4eca-9f9e-ffa615402df6-198"
       gradientTransform="matrix(0.26458333,0,0,0.26458333,113.12876,-20.364185)" />
    <linearGradient
       inkscape:collect="always"
       xlink:href="#a17f7adb-619f-4eca-9f9e-ffa615402df6-198"
       id="linearGradient436"
       gradientUnits="userSpaceOnUse"
       x1="316.9"
       y1="512.48"
       x2="316.9"
       y2="321.58"
       gradientTransform="matrix(0.26458333,0,0,0.26458333,113.12876,-20.364185)" />
  </defs>
  <g
     inkscape:label="Layer 1"
     inkscape:groupmode="layer"
     id="layer1">
    <path
       d="m 262.14619,152.79739 a 63.859833,63.859833 0 0 1 -1.8706,15.40933 q -0.62971,2.54529 -1.46315,4.99004 a 59.438645,59.438645 0 0 1 -2.36008,5.9055 q -0.67469,1.45786 -1.42611,2.8628 a 38.520687,38.520687 0 0 1 -3.21998,15.47547 39.915041,39.915041 0 0 1 -19.3622,19.94959 40.745833,40.745833 0 0 1 -17.3064,3.96875 H 9.6728389 a 51.77102,51.77102 0 0 1 -26.0402909,-6.95854 q -1.754188,-1.016 -3.418417,-2.1643 a 51.702229,51.702229 0 0 1 -6.765396,-5.57741 50.344916,50.344916 0 0 1 -7.437437,-9.22602 49.175458,49.175458 0 0 1 -7.564438,-26.25461 c -5.013854,-8.79739 -7.9375,-19.33575 -7.9375,-30.65991 0,-14.2875 4.646084,-27.32088 12.279313,-37.18719 a 52.281666,52.281666 0 0 1 5.214937,-5.802313 48.529874,48.529874 0 0 1 5.963709,-4.881562 46.021624,46.021624 0 0 1 5.291666,-3.175 c 0.764646,-0.391583 1.531938,-0.756708 2.312458,-1.098021 0.685271,-0.304271 1.37848,-0.587375 2.079625,-0.854604 q 1.262063,-0.481542 2.555875,-0.881062 1.293813,-0.399521 2.553229,-0.703792 1.8520838,-0.452438 3.7676671,-0.735542 c 1.0583333,-0.156104 2.1166666,-0.264583 3.175,-0.34925 q 1.2620624,-0.08996 2.5452916,-0.105833 h 0.4630208 c 0.94191668,0 1.87854167,0.03704 2.8072292,0.100542 0.097896,-0.195792 0.2037291,-0.39423 0.301625,-0.590021 0.3704166,-0.703792 0.7540624,-1.407583 1.1403541,-2.098146 v -0.01852 C 3.0265056,82.018703 3.0926515,81.89964 3.1614431,81.783224 3.4736515,81.219661 3.799089,80.66139 4.132464,80.108411 c 0.1534583,-0.264583 0.3042708,-0.513292 0.4603749,-0.764646 0.034396,-0.06085 0.068792,-0.119062 0.1084792,-0.179916 0.15875,-0.264584 0.3201458,-0.529167 0.4841875,-0.79375 q 1.2250208,-1.955271 2.5479375,-3.849688 c 0.076729,-0.108479 0.1481666,-0.214312 0.2248958,-0.320146 0.1375833,-0.195791 0.2645833,-0.388937 0.4180417,-0.582083 0.365125,-0.510646 0.7408333,-1.023938 1.1191875,-1.529292 0.2645833,-0.357187 0.5291669,-0.714375 0.8149169,-1.058333 0.687916,-0.889 1.394354,-1.772708 2.116666,-2.645833 0.722313,-0.873125 1.484313,-1.751542 2.25425,-2.611438 0.105834,-0.119062 0.211667,-0.235479 0.322792,-0.354541 l 1.129771,-1.230313 v 0 c 0.05556,-0.05821 0.103187,-0.111125 0.156104,-0.164042 v 0 c 0.134937,-0.14552 0.264583,-0.291041 0.410104,-0.433916 0.605896,-0.640292 1.227667,-1.272646 1.852083,-1.897063 a 100.85917,100.85917 0 0 1 10.170584,-8.837083 c 0.140229,-0.111125 0.283104,-0.216958 0.423333,-0.322792 0.672042,-0.508 1.354667,-1.008062 2.037292,-1.500187 a 107.64308,107.64308 0 0 1 11.750145,-7.328958 c 0.280459,-0.15875 0.566209,-0.309563 0.854604,-0.460375 a 112.78129,112.78129 0 0 1 11.242146,-5.17525 q 3.137958,-1.240896 6.387042,-2.31775 c 1.434041,-0.468313 2.873375,-0.915459 4.331229,-1.322917 q 3.381375,-0.971021 6.847416,-1.751542 a 122.59469,122.59469 0 0 1 20.701,-2.820458 q 3.175,-0.166687 6.421438,-0.166687 a 123.03125,123.03125 0 0 1 30.956246,3.915833 1.1165417,1.1165417 0 0 0 0.96044,0.500062 h 0.889 c 0.38629,0.103188 0.76994,0.211667 1.15623,0.322792 q 3.23585,0.933979 6.3791,2.034646 l 0.52917,0.1905 a 113.87667,113.87667 0 0 1 15.05744,6.614583 109.02421,109.02421 0 0 1 12.60739,7.789333 q 0.92869,0.66675 1.83092,1.34673 1.09538,-0.706438 2.22779,-1.34673 a 43.812354,43.812354 0 0 1 9.22867,-3.931708 42.095208,42.095208 0 0 1 20.701,-0.809625 c 8.79739,1.865313 16.76135,6.495521 23.19337,13.081 a 54.12052,54.12052 0 0 1 6.96384,8.805333 c 0.14552,0.227542 0.29104,0.457729 0.43127,0.690563 a 58.208333,58.208333 0 0 1 4.42912,8.834437 c 0.045,0.111125 0.09,0.219604 0.12965,0.330729 a 61.142562,61.142562 0 0 1 2.72521,8.823854 c 0.0317,0.150813 0.0688,0.304271 0.10054,0.457729 a 63.529103,63.529103 0 0 1 1.30175,8.829146 c 0,0.105834 0,0.214313 0.0212,0.322792 q 0.16669,2.304521 0.16934,4.659309 c 0,1.40229 -0.0476,2.794 -0.13494,4.17248 0,0.15081 -0.0212,0.30956 -0.0344,0.46302 -0.0238,0.40217 -0.0582,0.79375 -0.0926,1.19857 a 50.191458,50.191458 0 0 1 5.65679,5.334 q 1.15623,1.26206 2.23838,2.62202 a 55.604833,55.604833 0 0 1 5.76791,8.82914 c 4.46617,8.46138 7.03792,18.39384 7.03792,29.02744 z"
       fill="#6c63ff"
       opacity="0.1"
       id="path21"
       style="stroke-width:0.264583" />
    <path
       d="m 232.24827,204.87533 c 0,6.01398 -6.23358,11.64166 -17.1106,16.48883 H 9.6728389 c -9.50647906,0 -18.4097081,-3.43958 -26.0402909,-9.43769 -1.91823,-2.27541 -2.928938,-4.63285 -2.928938,-7.05379 0,-6.39233 7.0485,-12.35869 19.23520817,-17.40165 v 0 l 0.34395833,-0.13758 c 3.4395833,-1.41023 7.2839791,-2.74108 11.4855625,-3.99256 0.105833,-0.0317 0.214312,-0.0609 0.320146,-0.0979 v 0 q 5.000625,-1.46843 10.638895,-2.78341 c 0.119063,-0.0265 0.23548,-0.0556 0.354542,-0.0767 1.449917,-0.34396 2.928938,-0.66411 4.439708,-0.98425 v 0 l 0.582084,-0.12171 c 10.993437,-2.28071 23.489708,-4.09046 37.041666,-5.31813 h 0.01587 q 2.846916,-0.26458 5.754687,-0.4736 c 2.156354,-0.17198 4.339167,-0.3175 6.545792,-0.45244 1.685396,-0.10848 3.391958,-0.20108 5.103812,-0.28575 a 0.05027083,0.05027083 0 0 1 0.03969,0 c 7.723187,-0.38894 15.70302,-0.59266 23.862769,-0.59266 20.17713,0 39.2483,1.23825 56.14723,3.43958 a 0.13758333,0.13758333 0 0 1 0.0476,0 c 2.59821,0.33867 5.14879,0.69585 7.63587,1.07685 0.71173,0.11113 1.42082,0.22225 2.11667,0.33602 q 4.20952,0.67998 8.20208,1.43669 v 0 c 31.30021,5.95048 51.63079,15.57867 51.63079,26.43188 z"
       fill="#6c63ff"
       opacity="0.1"
       id="path23"
       style="stroke-width:0.264583" />
    <path
       d="m 181.09902,94.051953 c 0,0 -2.79929,-1.135063 -11.70516,2.947458 -8.90588,4.082519 -10.01713,3.566579 -12.32165,2.95275 -2.30452,-0.613834 -3.59039,-0.772584 -6.0616,-4.183063 0,0 -1.74361,-9.44827 -3.43959,-10.914062 -1.69597,-1.465792 -8.8556,0.836083 -8.8556,0.836083 0,0 -8.59631,1.971146 -10.23408,-9.525 0,0 1.16152,-8.657166 -0.42069,-11.313583 0,0 3.19617,1.375834 8.46667,-0.846666 5.2705,-2.2225 9.4906,2.394479 9.4906,2.394479 0,0 1.32292,3.439583 1.19063,5.49275 -0.1323,2.053166 0.70379,2.823104 3.21733,1.830916 0,0 1.2356,-1.756833 -0.51329,-4.661958 -1.7489,-2.905125 -2.99773,-5.066771 -2.5109,-7.321021 0.48683,-2.25425 1.89177,-5.38427 6.40292,-6.947958 4.51114,-1.563687 10.63625,-1.852083 13.57577,-3.087687 2.93952,-1.235605 3.66448,-2.024063 3.66448,-2.024063 0,0 -1.80975,1.812396 2.45269,9.498542 4.26243,7.686145 1.54516,11.019895 1.54516,11.019895 0,0 -2.26748,5.405438 -12.27931,4.966229 0,0 -9.64671,0.351896 -4.38679,4.442355 0,0 3.36814,-0.685271 8.40316,-2.286 5.03503,-1.60073 8.6704,5.005916 9.57263,9.601729 0.90223,4.595812 4.74662,7.127875 4.74662,7.127875 z"
       fill="#6c63ff"
       id="path25"
       style="stroke-width:0.264583" />
    <path
       d="m 168.1318,55.502161 0.0529,-0.01588 c 0.38629,1.465792 -3.92377,7.360709 -7.60941,12.046479 l -0.0423,-0.0344 c 5.19642,-6.598709 7.89781,-10.861146 7.59884,-11.996209 z"
       fill="#444053"
       id="path27"
       style="stroke-width:0.264583" />
    <path
       d="m 160.60705,67.408411 0.0238,0.05821 c -2.94481,3.741208 -6.64634,8.202083 -9.60967,11.517312 -0.2831,0.314854 -0.56356,0.645583 -0.83344,0.98425 l -0.0847,-0.06879 c 0.26458,-0.338666 0.55298,-0.672041 0.83608,-0.986896 2.96069,-3.302 6.72042,-7.760229 9.66788,-11.504083 z"
       fill="#444053"
       id="path29"
       style="stroke-width:0.264583" />
    <path
       d="m 150.17452,79.814724 0.0582,0.100541 c -5.39221,6.733646 -5.74939,17.197917 -5.76262,17.279937 l -1.13771,-1.322916 c 0.0132,-0.08467 1.41287,-9.276292 6.84212,-16.057562 z"
       fill="#444053"
       id="path31"
       style="stroke-width:0.264583" />
    <path
       d="m 174.8575,90.400703 c 0,0 -6.35,-3.307292 -11.31358,-2.116667 -4.96358,1.190625 -16.12635,-4.206875 -16.12635,-4.206875 0,0 -4.73605,-1.923521 -5.68855,-4.116917 0,0 -3.25172,-3.439583 -3.43958,-5.214937 -0.18785,-1.775354 -3.34962,-6.249458 -5.41337,-6.421437"
       fill="none"
       stroke="#444053"
       stroke-miterlimit="10"
       id="path33"
       style="stroke-width:0.264583" />
    <path
       d="m 173.92352,93.58364 c 0,0 -3.20145,-2.159 -2.82839,-4.672542"
       fill="none"
       stroke="#444053"
       stroke-miterlimit="10"
       id="path35"
       style="stroke-width:0.264583" />
    <path
       d="m 169.01286,96.369703 c 0,0 -4.57994,-1.661584 -5.02709,-8.180917"
       fill="none"
       stroke="#444053"
       stroke-miterlimit="10"
       id="path37"
       style="stroke-width:0.264583" />
    <path
       d="m 161.62834,98.057744 c 0,0 -4.37621,-3.630083 -2.92365,-9.974791"
       fill="none"
       stroke="#444053"
       stroke-miterlimit="10"
       id="path39"
       style="stroke-width:0.264583" />
    <path
       d="m 152.74098,96.285036 c 0,0 -2.91041,-6.111875 -0.32014,-10.088563"
       fill="none"
       stroke="#444053"
       stroke-miterlimit="10"
       id="path41"
       style="stroke-width:0.264583" />
    <path
       d="m 174.91836,86.371098 c 0,0 -3.30994,1.058334 -2.60086,2.794"
       fill="none"
       stroke="#444053"
       stroke-miterlimit="10"
       id="path43"
       style="stroke-width:0.264583" />
    <path
       d="m 170.92315,80.372994 c 0,0 -4.43177,1.404938 -4.53496,7.672917"
       fill="none"
       stroke="#444053"
       stroke-miterlimit="10"
       id="path45"
       style="stroke-width:0.264583" />
    <path
       d="m 164.74248,78.912494 c 0,0 -4.03489,4.979459 -3.73856,9.503834"
       fill="none"
       stroke="#444053"
       stroke-miterlimit="10"
       id="path47"
       style="stroke-width:0.264583" />
    <path
       d="m 157.67811,80.865119 c 0,0 -4.00579,3.831167 -3.49515,5.961063"
       fill="none"
       stroke="#444053"
       stroke-miterlimit="10"
       id="path49"
       style="stroke-width:0.264583" />
    <path
       d="m 155.26246,79.513099 c 0,0 -3.75708,0.672041 -4.2836,-0.560917"
       fill="none"
       stroke="#444053"
       stroke-miterlimit="10"
       id="path51"
       style="stroke-width:0.264583" />
    <path
       d="m 150.3809,74.97814 c 0,0 1.89706,2.513542 2.38125,1.949979"
       fill="none"
       stroke="#444053"
       stroke-miterlimit="10"
       id="path53"
       style="stroke-width:0.264583" />
    <path
       d="m 169.19807,73.387994 c 0,0 -9.47209,0.687917 -11.61521,-2.169583"
       fill="none"
       stroke="#444053"
       stroke-miterlimit="10"
       id="path55"
       style="stroke-width:0.264583" />
    <path
       d="m 148.39917,62.30989 c 0,0 4.44235,9.538229 7.67292,10.752667"
       fill="none"
       stroke="#444053"
       stroke-miterlimit="10"
       id="path57"
       style="stroke-width:0.264583" />
    <path
       d="m 153.05055,57.766995 c 0,0 2.72785,8.773583 6.10922,11.51202"
       fill="none"
       stroke="#444053"
       stroke-miterlimit="10"
       id="path59"
       style="stroke-width:0.264583" />
    <path
       d="m 173.18269,66.146349 c 0,0 -7.20196,3.090333 -11.52525,-0.03704"
       fill="none"
       stroke="#444053"
       stroke-miterlimit="10"
       stroke-width="0.198437"
       id="path61" />
    <path
       d="m 159.46405,55.896391 c 0,0 1.6457,6.447895 3.86291,8.006291"
       fill="none"
       stroke="#444053"
       stroke-miterlimit="10"
       stroke-width="0.198437"
       id="path63" />
    <path
       d="m 172.09525,58.920578 c 0,0 -4.04812,1.534583 -5.55625,0.359833"
       fill="none"
       stroke="#444053"
       stroke-miterlimit="10"
       stroke-width="0.198437"
       id="path65" />
    <path
       d="m 146.91221,77.084224 c 0,0 0,5.622395 -1.52929,6.021916"
       fill="none"
       stroke="#444053"
       stroke-miterlimit="10"
       id="path67"
       style="stroke-width:0.264583" />
    <path
       d="m 134.40007,84.368203 c 0,0 6.08541,0.529166 8.88206,-2.616729"
       fill="none"
       stroke="#444053"
       stroke-miterlimit="10"
       id="path69"
       style="stroke-width:0.264583" />
    <path
       d="m 145.34588,70.443182 c 0,0 -1.47108,5.701771 -5.52979,7.239"
       fill="none"
       stroke="#444053"
       stroke-miterlimit="10"
       id="path71"
       style="stroke-width:0.264583" />
    <path
       d="m 130.75411,78.362161 c 0,0 4.30212,1.494896 8.00364,-2.312458"
       fill="none"
       stroke="#444053"
       stroke-miterlimit="10"
       id="path73"
       style="stroke-width:0.264583" />
    <path
       d="m 140.55957,65.540453 c 0,0 -0.40482,4.841875 -3.03742,7.109354"
       fill="none"
       stroke="#444053"
       stroke-miterlimit="10"
       id="path75"
       style="stroke-width:0.264583" />
    <path
       d="m 130.91815,70.982932 c 0,0 3.56923,0.02381 4.40531,-1.140354"
       fill="none"
       stroke="#444053"
       stroke-miterlimit="10"
       id="path77"
       style="stroke-width:0.264583" />
    <rect
       x="55.080627"
       y="89.368828"
       width="101.65292"
       height="51.313293"
       fill="#33323d"
       id="rect79"
       style="stroke-width:0.264583" />
    <rect
       x="23.415297"
       y="156.27136"
       width="165.30638"
       height="33.776711"
       fill="#33323d"
       id="rect81"
       style="stroke-width:0.264583" />
    <polygon
       points="745.04,510.35 808.87,725.16 357.16,725.16 424.67,510.35 "
       fill="#ffffff"
       id="polygon83"
       transform="matrix(0.26458333,0,0,0.26458333,-49.485348,29.68412)" />
    <polygon
       points="377.41,488.26 798.43,488.26 798.43,606.09 918.11,606.09 918.11,482.58 918.11,468.62 918.11,402.33 257.73,402.33 257.73,468.62 257.73,482.58 257.73,606.09 377.41,606.09 "
       fill="#504f60"
       id="polygon85"
       transform="matrix(0.26458333,0,0,0.26458333,-49.485348,29.68412)" />
    <rect
       x="18.705717"
       y="136.13393"
       width="174.72554"
       height="17.536583"
       fill="#33323d"
       opacity="0.1"
       id="rect87"
       style="stroke-width:0.264583" />
    <circle
       cx="326.6824"
       cy="89.27346"
       r="2.5982082"
       fill="#8ccf4d"
       opacity="0.8"
       id="circle89"
       style="stroke-width:0.264583" />
    <circle
       cx="314.99048"
       cy="89.27346"
       r="2.5982082"
       fill="#fa5959"
       opacity="0.8"
       id="circle91"
       style="stroke-width:0.264583" />
    <rect
       x="58.816544"
       y="77.026016"
       width="94.183731"
       height="55.858829"
       fill="#ffffff"
       id="rect93"
       style="stroke-width:0.264583" />
    <path
       d="m 309.99513,102.9233 c 0.19844,2.16165 -1.43404,4.25979 -0.95779,6.37646 0.10054,0.45244 0.29633,0.88106 0.36777,1.32292 0.19579,1.25677 -0.55298,2.44739 -1.27,3.50043 l -6.14627,9.04346 a 5.6144583,5.6144583 0 0 1 -0.87842,1.08479 c -1.17739,1.05834 -2.93952,0.93663 -4.48204,1.24884 a 7.6940832,7.6940832 0 0 0 -3.00302,1.32291 0.19579166,0.19579166 0 0 0 -0.0397,0.26459 2.5849791,2.5849791 0 0 0 2.23309,1.05833 c 0.16139,0.21167 0,0.52917 -0.22225,0.67733 -0.33073,0.22755 -0.79375,0.2884 -0.84932,0.84932 a 0.93133332,0.93133332 0 0 0 0.11113,0.56356 1.7488958,1.7488958 0 0 0 1.07685,0.74612 c 2.11667,0.65088 4.42648,-0.49212 6.01927,-2.04787 1.5928,-1.55575 2.7358,-3.51896 4.29948,-5.10381 0.86519,-0.87577 1.85209,-1.62719 2.74109,-2.4765 1.778,-1.69334 3.175,-3.75444 4.49791,-5.82084 a 6.4029166,6.4029166 0 0 0 0.97367,-1.98173 c 0.16404,-0.70379 0.09,-1.44727 0.28046,-2.14577 0.24871,-0.91281 0.9181,-1.64041 1.47373,-2.4077 1.09273,-1.50284 1.82033,-3.33905 1.67481,-5.19113 -0.14552,-1.85208 -1.28852,-3.67506 -3.03477,-4.30477 a 2.7225625,2.7225625 0 0 0 -1.70127,-0.10319 c -0.71702,0.21961 -1.24354,0.81227 -1.73302,1.37848 l -1.16681,1.34673 a 3.2517291,3.2517291 0 0 0 -0.67998,1.03452 1.0768542,1.0768542 0 0 0 0.24077,1.14829"
       fill="#fbbebe"
       id="path95"
       style="stroke-width:0.264583" />
    <path
       d="m 309.99513,102.9233 c 0.19844,2.16165 -1.43404,4.25979 -0.95779,6.37646 0.10054,0.45244 0.29633,0.88106 0.36777,1.32292 0.19579,1.25677 -0.55298,2.44739 -1.27,3.50043 l -6.14627,9.04346 a 5.6144583,5.6144583 0 0 1 -0.87842,1.08479 c -1.17739,1.05834 -2.93952,0.93663 -4.48204,1.24884 a 7.6940832,7.6940832 0 0 0 -3.00302,1.32291 0.19579166,0.19579166 0 0 0 -0.0397,0.26459 2.5849791,2.5849791 0 0 0 2.23309,1.05833 c 0.16139,0.21167 0,0.52917 -0.22225,0.67733 -0.33073,0.22755 -0.79375,0.2884 -0.84932,0.84932 a 0.93133332,0.93133332 0 0 0 0.11113,0.56356 1.7488958,1.7488958 0 0 0 1.07685,0.74612 c 2.11667,0.65088 4.42648,-0.49212 6.01927,-2.04787 1.5928,-1.55575 2.7358,-3.51896 4.29948,-5.10381 0.86519,-0.87577 1.85209,-1.62719 2.74109,-2.4765 1.778,-1.69334 3.175,-3.75444 4.49791,-5.82084 a 6.4029166,6.4029166 0 0 0 0.97367,-1.98173 c 0.16404,-0.70379 0.09,-1.44727 0.28046,-2.14577 0.24871,-0.91281 0.9181,-1.64041 1.47373,-2.4077 1.09273,-1.50284 1.82033,-3.33905 1.67481,-5.19113 -0.14552,-1.85208 -1.28852,-3.67506 -3.03477,-4.30477 a 2.7225625,2.7225625 0 0 0 -1.70127,-0.10319 c -0.71702,0.21961 -1.24354,0.81227 -1.73302,1.37848 l -1.16681,1.34673 a 3.2517291,3.2517291 0 0 0 -0.67998,1.03452 1.0768542,1.0768542 0 0 0 0.24077,1.14829"
       opacity="0.05"
       id="path97"
       style="stroke-width:0.264583" />
    <path
       d="m 314.64915,158.56253 c -1.34408,0.81756 -3.01625,0.87048 -4.57729,0.67733 -0.26458,-0.0291 -0.54769,-0.0476 -0.70908,0.14553 -0.23284,0.2831 0.0423,0.69585 0.32544,0.92339 a 6.8103749,6.8103749 0 0 0 3.14589,1.29381 21.283083,21.283083 0 0 0 3.07446,0.20373 c 2.80458,0.0476 5.62504,0.0953 8.40317,-0.30956 a 1.1350625,1.1350625 0 0 0 0.45773,-0.13494 0.84931249,0.84931249 0 0 0 0.3466,-0.52916 c 0.19315,-0.71967 -0.17463,-1.49755 -0.7276,-1.99761 -0.55298,-0.50006 -1.26471,-0.78052 -1.96057,-1.05833 l -2.43946,-0.94986 c -0.57414,-0.22489 -1.49225,-0.81491 -2.11666,-0.76993 -1.14036,0.0926 -2.25425,1.93939 -3.22263,2.5056 z"
       fill="#3f3d56"
       id="path99"
       style="stroke-width:0.264583" />
    <path
       d="m 314.64915,158.56253 c -1.34408,0.81756 -3.01625,0.87048 -4.57729,0.67733 -0.26458,-0.0291 -0.54769,-0.0476 -0.70908,0.14553 -0.23284,0.2831 0.0423,0.69585 0.32544,0.92339 a 6.8103749,6.8103749 0 0 0 3.14589,1.29381 21.283083,21.283083 0 0 0 3.07446,0.20373 c 2.80458,0.0476 5.62504,0.0953 8.40317,-0.30956 a 1.1350625,1.1350625 0 0 0 0.45773,-0.13494 0.84931249,0.84931249 0 0 0 0.3466,-0.52916 c 0.19315,-0.71967 -0.17463,-1.49755 -0.7276,-1.99761 -0.55298,-0.50006 -1.26471,-0.78052 -1.96057,-1.05833 l -2.43946,-0.94986 c -0.57414,-0.22489 -1.49225,-0.81491 -2.11666,-0.76993 -1.14036,0.0926 -2.25425,1.93939 -3.22263,2.5056 z"
       opacity="0.05"
       id="path101"
       style="stroke-width:0.264583" />
    <path
       d="m 316.35042,126.1643 c -1.01335,1.35202 -2.06639,2.91042 -1.81504,4.58523 0.13494,0.90223 0.64029,1.69863 1.01071,2.53206 a 17.835562,17.835562 0 0 1 1.02394,3.556 c 0.381,1.77007 0.762,3.54542 0.99483,5.34194 0.26458,2.02936 -0.97896,7.90046 -1.09537,9.94569 -0.0291,0.49212 -0.0847,1.02658 -0.42863,1.38112 -0.13494,0.14023 -0.31485,0.26459 -0.37306,0.43657 a 0.73289582,0.73289582 0 0 0 0.0794,0.51329 c 0.57415,1.29381 1.74625,2.25425 3.048,2.80458 1.30175,0.55033 4.46882,1.4949 5.88169,1.54517 a 1.1138958,1.1138958 0 0 0 0.55298,-0.0741 1.0583333,1.0583333 0 0 0 0.42863,-0.48947 c 1.02129,-1.94998 0.0397,-8.89265 0.0556,-11.09663 0,-1.85208 0.44714,-3.66183 0.36777,-5.49804 -0.0661,-1.47373 -0.46038,-2.91042 -0.60325,-4.3815 -0.23548,-2.41036 0.20637,-4.82865 0.65087,-7.2099 0.33867,-1.82298 0.67734,-3.6486 1.11125,-5.45306 0.26459,-1.09802 0.5715,-2.20927 1.1774,-3.175 0.47889,-0.75935 1.12977,-1.39171 1.67746,-2.11667 a 9.5249999,9.5249999 0 0 0 1.87589,-6.9797 c -0.0318,-0.24342 -3.52425,0.88635 -3.82852,1.01864 a 11.988271,11.988271 0 0 0 -3.41048,2.19604 c -0.79375,0.76729 -1.44198,1.79652 -2.15106,2.65907 q -1.50019,1.82562 -2.96069,3.68035 -1.65893,2.1299 -3.27025,4.27831 z"
       fill="#464353"
       id="path103"
       style="stroke-width:0.264583" />
    <path
       d="m 316.35042,126.07699 c -1.01335,1.35202 -2.06639,2.91042 -1.81504,4.58787 0.13494,0.89959 0.64029,1.69598 1.01071,2.52942 a 17.885833,17.885833 0 0 1 1.02394,3.556 c 0.381,1.77006 0.762,3.54542 0.99483,5.34194 0.26458,2.02935 -0.97896,7.9031 -1.09537,9.94833 -0.0291,0.48948 -0.0847,1.02659 -0.42863,1.37848 -0.13494,0.14023 -0.31485,0.26458 -0.37306,0.43656 a 0.74347916,0.74347916 0 0 0 0.0794,0.52917 c 0.57415,1.29117 1.74625,2.25425 3.048,2.80194 1.30175,0.54769 4.46882,1.05833 5.88169,1.10331 a 1.1138958,1.1138958 0 0 0 0.55298,-0.0741 1.0583333,1.0583333 0 0 0 0.42863,-0.48948 c 1.02129,-1.94998 0.0397,-8.45079 0.0556,-10.65213 0,-1.85208 0.44714,-3.66448 0.36777,-5.50068 -0.0661,-1.47373 -0.46038,-2.91042 -0.60325,-4.3815 -0.23548,-2.41036 0.20637,-4.82865 0.65087,-7.20725 0.33867,-1.82563 0.67734,-3.65125 1.11125,-5.45571 0.26459,-1.09802 0.5715,-2.20927 1.1774,-3.175 0.47889,-0.75671 1.12977,-1.39171 1.67746,-2.10079 a 9.5435207,9.5435207 0 0 0 1.87589,-6.97971 c -0.0318,-0.24607 -3.52425,0.88371 -3.82852,1.01864 a 11.922125,11.922125 0 0 0 -3.41048,2.20134 c -0.79375,0.76993 -1.44198,1.79652 -2.15106,2.64583 q -1.50019,1.82562 -2.96069,3.683 -1.65893,2.11667 -3.27025,4.2545 z"
       opacity="0.05"
       id="path105"
       style="stroke-width:0.264583" />
    <circle
       cx="305.05536"
       cy="90.699562"
       r="5.6964793"
       fill="#fbbebe"
       id="circle107"
       style="stroke-width:0.264583" />
    <path
       d="m 310.18299,90.46143 a 7.3924582,7.3924582 0 0 0 4.7281,3.30729 l -0.42862,1.5531 c -0.74084,2.68023 -1.5875,5.51392 -3.64332,7.3713 0.2249,-0.90753 -0.0661,-1.88384 -0.57943,-2.66436 a 10.215562,10.215562 0 0 0 -1.93411,-2.02142 l -3.27819,-2.8522 a 0.97895832,0.97895832 0 0 1 -0.24606,-0.26459 0.84931249,0.84931249 0 0 1 0,-0.62441 c 0.41804,-1.29911 1.61131,-2.11667 2.57704,-2.9898 a 9.1598749,9.1598749 0 0 0 1.29646,-1.51077 c 0.67204,-0.93398 1.07686,0 1.50813,0.69586 z"
       fill="#fbbebe"
       id="path109"
       style="stroke-width:0.264583" />
    <path
       d="m 297.54913,84.97397 -0.127,-1.05833 c 0.89959,0.23283 1.75154,-0.52917 2.32569,-1.32292 0.57415,-0.79375 1.1086,-1.72508 1.98437,-2.05317 1.05834,-0.40216 2.19075,0.24077 3.20675,0.76994 a 10.157354,10.157354 0 0 0 3.683,1.20385 2.38125,2.38125 0 0 1 0.60855,0.10055 c 0.66145,0.23548 0.97631,1.05833 1.07156,1.81768 0.0952,0.75936 0.0688,1.55311 0.39687,2.22515 0.24607,0.508 0.67205,0.88635 0.93134,1.38642 0.69585,1.34937 0.0238,3.19087 0.75935,4.51379 l -1.82562,-1.67481 c -0.16934,-0.15346 -0.40482,-0.31221 -0.58738,-0.18257 -0.18256,0.12965 -0.1561,0.32544 -0.21696,0.50271 -0.17727,0.52917 -0.8255,0.67733 -1.2991,0.47361 -0.47361,-0.20373 -0.81492,-0.65353 -1.16152,-1.05834 -0.80698,-0.9525 -1.76742,-1.78858 -2.91042,-2.19604 a 3.7200416,3.7200416 0 0 0 -3.06652,0.18256 c -0.85196,0.48154 -1.47637,1.60338 -2.51883,1.64307 -1.4314,0.0529 -2.02671,-2.61144 -2.69082,-3.66448 a 1.2964583,1.2964583 0 0 0 0.37571,-1.61661 c 0.11642,-0.045 1.04246,-0.16404 1.06098,0.008 z"
       fill="#464353"
       id="path111"
       style="stroke-width:0.264583" />
    <path
       d="m 321.29284,158.51755 a 6.0219166,6.0219166 0 0 1 -4.09575,1.52665 c -0.38365,0 -0.91546,0.0741 -0.9181,0.45773 a 0.61383333,0.61383333 0 0 0 0.11112,0.3175 3.7650208,3.7650208 0 0 0 2.11667,1.65629 c 0.82021,0.24871 1.69862,0.20637 2.55587,0.16404 l 2.50032,-0.12965 c 0.47095,-0.0264 0.94456,-0.0503 1.41552,-0.10847 0.47095,-0.0582 0.97895,-0.15611 1.47108,-0.22755 a 19.248437,19.248437 0 0 1 3.64067,-0.17198 c 0.32279,0.0132 0.69585,0 0.89693,-0.24341 0.20109,-0.24342 0.0926,-0.68263 0.0185,-1.03452 -0.14816,-0.72496 0,-1.48432 -0.13758,-2.21192 -0.24077,-1.27794 -1.33879,-2.25425 -2.55058,-2.71727 -1.12448,-0.42863 -3.11944,-0.9181 -4.18571,-0.20638 -1.143,0.7673 -1.83092,2.01613 -2.83898,2.92894 z"
       fill="#3f3d56"
       id="path113"
       style="stroke-width:0.264583" />
    <path
       d="m 323.76934,115.75824 c 0.22225,1.05833 1.2356,1.85208 1.26735,2.91042 0.0238,0.85725 -0.59002,1.5875 -1.02922,2.3151 a 15.345833,15.345833 0 0 0 -1.05834,2.38125 36.406666,36.406666 0 0 1 -3.09033,6.1251 c -0.58738,0.92869 -1.24354,1.9394 -1.10861,3.03213 a 4.5428958,4.5428958 0 0 0 0.52917,1.44992 l 1.75948,3.49514 a 10.054167,10.054167 0 0 1 0.89958,2.20927 c 0.15082,0.66411 0.16669,1.35202 0.26459,2.02936 0.27781,2.14312 1.28323,4.30212 0.69056,6.3791 -0.0529,0.17992 -0.23813,0.39688 -0.37835,0.26458 0.57943,1.0848 1.05833,2.18017 1.00277,3.41048 -0.0238,0.64559 -0.22225,1.32292 0.0185,1.92088 a 2.0875625,2.0875625 0 0 1 0.26458,0.75671 c 0,0.17462 -0.082,0.34131 -0.10054,0.52916 -0.0476,0.49477 0.40481,0.90752 0.87842,1.05834 0.4736,0.15081 0.98425,0.14552 1.4605,0.28839 0.9181,0.26459 1.56897,1.05834 2.35479,1.60867 a 4.9503541,4.9503541 0 0 0 2.70404,0.88106 0.67733332,0.67733332 0 0 0 0.39687,-0.0794 0.64558333,0.64558333 0 0 0 0.22225,-0.48419 2.682875,2.682875 0 0 0 -0.96837,-2.33098 1.0768542,1.0768542 0 0 1 -0.35719,-0.37571 0.89958332,0.89958332 0 0 1 -0.0344,-0.42069 31.408687,31.408687 0 0 0 -0.10318,-5.7732 8.7312499,8.7312499 0 0 1 -0.0926,-1.83621 c 0.0529,-0.51065 0.20638,-1.01865 0.14817,-1.52929 -0.0582,-0.51065 -0.31485,-0.97102 -0.46831,-1.46315 -0.26459,-0.87312 -0.19579,-1.80975 -0.2249,-2.72521 -0.0476,-1.5875 -0.4101,-3.14325 -0.77258,-4.68841 -0.14023,-0.6059 -0.29898,-1.24355 -0.73025,-1.69334 -0.36513,-0.381 -0.95515,-0.74877 -0.81756,-1.25677 a 1.4552083,1.4552083 0 0 1 0.33337,-0.50006 2.0081875,2.0081875 0 0 0 0.42069,-1.53194 0.68262499,0.68262499 0 0 0 0.79375,-0.37042 c 2.86014,-1.34672 5.1726,-4.04547 6.19125,-7.04056 a 2.3389166,2.3389166 0 0 1 0.26458,-0.62706 c 0.26458,-0.37042 0.72496,-0.52917 1.13242,-0.73554 1.28058,-0.64294 2.16694,-1.85209 2.97921,-3.03477 0.4736,-0.68792 0.94456,-1.397 1.14829,-2.20398 a 7.2310624,7.2310624 0 0 0 0.15875,-1.5875 l 0.0714,-2.75696 a 1.4843125,1.4843125 0 0 0 -0.0529,-0.52917 1.2779375,1.2779375 0 0 0 -0.29633,-0.43656 5.3101874,5.3101874 0 0 0 -2.91042,-1.5875 c -0.75142,-0.13494 -1.51871,-0.10848 -2.27806,-0.17198 -1.47373,-0.12171 -2.92894,-0.57679 -4.40267,-0.47096 -2.31775,0.16934 -4.37885,1.77536 -5.47158,3.82588 -0.38365,0.73289 -0.78582,1.37054 -1.60867,1.37054 z"
       fill="#464353"
       id="path115"
       style="stroke-width:0.264583" />
    <path
       d="m 310.91059,97.83007 a 3.0241875,3.0241875 0 0 1 -0.16669,1.25413 c -0.17991,0.38629 -0.635,0.68527 -1.02923,0.52917 0.11907,-0.26459 -0.19843,-0.57944 -0.49212,-0.54505 a 0.91545832,0.91545832 0 0 0 -0.65088,0.55298 2.0531666,2.0531666 0 0 0 -0.18785,1.27265 c 0.0926,0.52917 0.40481,1.05833 0.32279,1.5875 -0.0661,0.44979 -0.39687,0.89958 -0.2196,1.32292 a 2.143125,2.143125 0 0 0 0.42333,0.508 1.4340416,1.4340416 0 0 1 -0.15081,1.97114 l 4.43971,0.0873 c -0.1614,0.74348 0.16933,1.50284 0.55033,2.16165 a 13.615458,13.615458 0 0 0 10.14677,6.61458 0.88635416,0.88635416 0 0 0 -0.21167,1.35202 c 0.35984,0.35719 0.97102,0.31221 1.42346,0.0794 0.45244,-0.23284 0.80963,-0.61648 1.22238,-0.91281 a 3.7332708,3.7332708 0 0 1 2.50825,-0.67734 c 0.55562,0.0529 1.09537,0.23284 1.65364,0.26459 1.64571,0.0873 3.05859,-1.09538 4.63286,-1.5875 1.15358,-0.35455 2.45798,-0.35455 3.43958,-1.07421 0.41804,-0.30957 0.75935,-0.81757 0.63765,-1.32292 a 2.1933958,2.1933958 0 0 0 -0.4789,-0.77787 c -0.55827,-0.71967 -0.88635,-1.5875 -1.28323,-2.40507 a 14.4145,14.4145 0 0 0 -3.2094,-4.29683 28.818416,28.818416 0 0 0 -3.175,-2.41565 5.5906458,5.5906458 0 0 0 -0.86254,-0.52916 9.0249374,9.0249374 0 0 1 -1.18004,-0.4789 c -0.52917,-0.32808 -0.82285,-0.90752 -1.22237,-1.37583 -0.88107,-1.02658 -2.23309,-1.50019 -3.31788,-2.30717 -0.7276,-0.52916 -1.36789,-1.25412 -2.23837,-1.51606 -0.42069,-0.127 -0.87048,-0.13758 -1.29382,-0.26458 -0.95779,-0.29105 -1.65629,-1.143 -2.5982,-1.48696 -0.74613,-0.26459 -1.56634,-0.20109 -2.3548,-0.29898 a 5.4398333,5.4398333 0 0 1 -2.41564,-0.91811 2.9104166,2.9104166 0 0 0 -0.79375,-0.45508 c -1.18798,-0.36248 -1.28588,1.85208 -1.397,2.62202 -0.17727,1.1774 -0.47096,2.30981 -0.47096,3.46604 z"
       fill="#6c63ff"
       id="path117"
       style="stroke-width:0.264583" />
    <path
       d="m 312.06947,105.26487 c 0.19843,2.16164 -1.43405,4.25714 -0.9578,6.37645 0.10055,0.45244 0.29634,0.88107 0.36777,1.32292 0.19844,1.25677 -0.55297,2.4474 -1.27,3.49779 l -6.14627,9.02229 a 5.6144583,5.6144583 0 0 1 -0.87841,1.08479 c -1.1774,1.05834 -2.93952,0.93663 -4.48204,1.24884 a 7.7126041,7.7126041 0 0 0 -3.00303,1.32291 0.19579166,0.19579166 0 0 0 -0.0397,0.26459 2.5770416,2.5770416 0 0 0 2.23308,1.05833 c 0.1614,0.21431 0,0.52917 -0.22225,0.67733 -0.33073,0.23019 -0.79375,0.29105 -0.84931,0.85196 a 0.93133332,0.93133332 0 0 0 0.11112,0.56357 1.7594791,1.7594791 0 0 0 1.07686,0.74612 c 2.11666,0.65088 4.42648,-0.49212 6.01927,-2.04787 1.59279,-1.55575 2.73579,-3.51896 4.30212,-5.10382 0.86519,-0.87577 1.85209,-1.62718 2.73844,-2.4765 1.78065,-1.69333 3.16177,-3.75443 4.49792,-5.82083 a 6.4320208,6.4320208 0 0 0 0.97366,-1.98173 c 0.16405,-0.70379 0.09,-1.44727 0.28046,-2.14577 0.24871,-0.91281 0.91811,-1.64306 1.47373,-2.40771 1.09273,-1.50283 1.82033,-3.33904 1.67481,-5.19112 -0.14552,-1.85209 -1.28852,-3.67507 -3.03477,-4.30477 a 2.7040416,2.7040416 0 0 0 -1.70127,-0.10319 c -0.71437,0.2196 -1.24354,0.81227 -1.73302,1.37848 l -1.16681,1.34673 a 3.1988125,3.1988125 0 0 0 -0.67733,1.03452 1.0715625,1.0715625 0 0 0 0.23812,1.14564"
       fill="#fbbebe"
       id="path119"
       style="stroke-width:0.264583" />
    <path
       d="m 315.18097,96.3828 c -0.80963,0.0476 -1.69863,0.127 -2.27013,0.70379 a 3.2623125,3.2623125 0 0 0 -0.5715,0.8943 c -0.55298,1.12977 -1.09273,2.30981 -1.13242,3.56658 -0.0344,1.00542 0.26459,1.98702 0.41011,2.98185 0.127,0.8255 -0.19579,1.66688 -0.26459,2.50296 1.00278,-0.30691 2.32569,-0.72496 3.23586,-1.24354 a 10.710333,10.710333 0 0 1 1.89177,-0.98425 c 0.96573,-0.32015 2.58762,0.23019 3.49779,0.68263 0.0503,-0.64559 -0.43127,-1.76478 -0.381,-2.41036 a 2.7278541,2.7278541 0 0 1 0.14288,-0.79375 4.8789166,4.8789166 0 0 1 0.48418,-0.76994 3.1538333,3.1538333 0 0 0 -0.2831,-3.70416 c -0.81227,-0.91546 -2.08756,-1.25942 -3.302,-1.39965 a 14.31925,14.31925 0 0 0 -2.30717,-0.082"
       fill="#6c63ff"
       id="path121"
       style="stroke-width:0.264583" />
    <path
       d="m 54.87427,135.31125 -5.217584,-7.56708 c 0,0 -0.0979,-1.87325 -0.439208,-2.30981 -0.341313,-0.43657 -0.07408,-1.41023 -0.07408,-1.41023 0,0 0.36777,-0.52917 0.05027,-0.58473 -0.3175,-0.0556 -0.05027,-1.2409 -0.05027,-1.2409 l -0.02381,-1.89706 c 0,0 0.293688,-1.82562 0.05027,-2.26219 a 0.71702082,0.71702082 0 0 1 0.02381,-0.78052 c 0,0 0.291042,-1.0451 0,-1.32291 -0.291041,-0.27782 -0.219604,-1.89707 -0.148166,-3.18823 0.07144,-1.29117 -0.510646,-2.01877 -0.510646,-2.21192 0,-0.19315 -1.926167,-2.09285 -1.926167,-2.26483 0,-0.17198 -1.219729,-0.87577 -1.952625,-1.05834 -0.732896,-0.18256 -1.095375,-0.34131 -1.071562,-0.43921 0.02381,-0.0979 -1.145646,-0.48418 -1.145646,-0.48418 0,0 -1.023937,-0.0741 -1.415521,-0.58473 -0.391583,-0.51065 -1.5875,-0.65881 -1.616604,-0.66411 l -0.02381,-0.10054 c 0,-0.037 -0.01323,-0.0741 -0.02117,-0.11112 a 5.1170416,5.1170416 0 0 0 0.264583,-0.47625 l 0.06879,-0.14817 a 2.0690416,2.0690416 0 0 0 1.198562,-0.37306 1.6218958,1.6218958 0 0 0 0.58473,-1.16681 2.5505833,2.5505833 0 0 0 -0.28575,-1.29646 c -0.214313,-0.43656 -0.529167,-0.89165 -0.418042,-1.367897 0.04762,-0.20373 0.169333,-0.383646 0.232833,-0.58473 A 1.5451666,1.5451666 0 0 0 40.832832,98.26165 c -0.185208,-0.351896 -0.441854,-0.664104 -0.648229,-1.005416 a 3.96875,3.96875 0 0 1 -0.515937,-1.423459 2.1933958,2.1933958 0 0 0 -0.187855,-0.775229 1.4472708,1.4472708 0 0 0 -0.428625,-0.431271 4.2809583,4.2809583 0 0 0 -2.62202,-0.79375 c -0.664105,0.02117 -1.322917,0.201084 -1.984375,0.119063 a 7.1093541,7.1093541 0 0 1 -1.158875,-0.301625 c -0.817563,-0.243417 -1.762125,-0.341313 -2.473855,0.127 -0.711729,0.468312 -0.994833,1.389062 -1.47902,2.116666 -0.425979,0.635 -1.058334,1.169459 -1.375834,1.852084 0,0 0,-0.02646 0,-0.03704 a 2.2172083,2.2172083 0 0 0 -0.182562,0.489479 3.4872083,3.4872083 0 0 0 0.108479,1.613958 1.1218333,1.1218333 0 0 0 0.394229,0.71967 c 0.240771,0.1561 0.5715,0.11906 0.851959,0.16933 l -0.03175,0.13758 a 5.5694791,5.5694791 0 0 0 3.865562,6.477 c 0,0.0503 0,0.0979 0,0.14817 a 3.5454166,3.5454166 0 0 1 -0.02646,0.41804 v 0 c 0,0 -2.452688,-0.50536 -3.1115,-0.16404 -0.658813,0.34131 -1.949979,0.60854 -2.145771,0.79375 -0.195792,0.18521 -0.682625,0.0503 -1.121833,1.19327 -0.439209,1.143 -0.486834,2.30981 -1.058334,2.84691 -0.5715,0.53711 -0.851958,0.89959 -0.878416,1.28853 -0.02646,0.38893 0.07408,0.48683 -0.145521,0.60854 -0.219604,0.12171 -0.529167,0.63235 -0.439209,0.82814 a 0.69056249,0.69056249 0 0 1 -0.264583,0.72761 0.80962499,0.80962499 0 0 0 -0.341312,0.73025 c 0,0 -0.148167,0.52916 -0.48948,0.65881 -0.341312,0.12965 -0.560916,0.9234 -0.560916,0.9234 l -1.105959,1.27 -2.19075,-2.42359 a 0.92604165,0.92604165 0 0 0 -1.304395,-0.0661 l -1.076855,0.96837 a 2.1325416,2.1325416 0 0 0 -1.076854,0.64029 2.8680833,2.8680833 0 0 0 -0.55827,0.83079 l -0.587375,0.52917 a 1.5001875,1.5001875 0 0 0 -0.153459,1.65365 l 1.404938,1.5531 v 0.0132 a 2.4870833,2.4870833 0 0 0 -1.357313,0.55298 c -2.0955,1.85208 -2.116666,3.55335 -1.804458,4.33123 0.312208,0.77787 2.973917,3.77031 2.973917,3.77031 0,0 1.545166,2.00819 3.775604,3.07446 v 0 l -0.01588,0.0185 a 1.8362083,1.8362083 0 0 0 -0.129646,0.15081 l -0.03704,0.0476 -0.0344,0.0476 -0.03969,0.0582 a 0.46037499,0.46037499 0 0 0 -0.0291,0.0476 l -0.04233,0.0688 a 0.42862499,0.42862499 0 0 0 -0.02646,0.0476 c -0.01852,0.0318 -0.0344,0.0635 -0.05027,0.0952 a 0.35454166,0.35454166 0 0 0 -0.01588,0.0318 c -0.02117,0.0423 -0.04233,0.0847 -0.06085,0.13229 l -0.02117,0.0476 c -0.01323,0.0318 -0.02381,0.0635 -0.03704,0.0979 a 0.59531249,0.59531249 0 0 0 -0.02117,0.0635 l -0.03175,0.0952 a 0.52916666,0.52916666 0 0 0 -0.02117,0.0688 c 0,0.0344 -0.02117,0.0688 -0.0291,0.10583 -0.0079,0.037 -0.01323,0.0423 -0.01852,0.0661 -0.0053,0.0238 -0.02646,0.11377 -0.03704,0.17462 0,0.0212 0,0.045 -0.01323,0.0688 -0.01323,0.0238 -0.01323,0.082 -0.02117,0.12436 -0.0079,0.0423 0,0.0582 0,0.09 l -0.01588,0.11906 v 0.0952 c 0,0.045 0,0.09 -0.01323,0.13758 -0.01323,0.0476 0,0.0556 0,0.0847 0,0.0767 0,0.15346 0,0.23548 -0.04763,2.84691 0.119062,3.25966 0.119062,3.25966 a 1.5875,1.5875 0 0 0 1.293813,0.97102 1.6139583,1.6139583 0 0 0 0.415395,-0.0212 c 1.27,-0.21961 4.233334,-0.73025 5.291667,-0.52917 0.632354,0.11642 1.799167,-0.0582 2.629958,-0.21431 l 0.219605,-0.0423 0.150812,0.48418 0.481542,-0.13229 0.410104,0.23548 0.264583,0.15081 c 0.481542,1.62984 2.434167,1.07421 2.434167,1.07421 l 0.463021,0.26458 4.706937,0.12171 a 9.4456249,9.4456249 0 0 0 1.666875,0.79375 1.2805833,1.2805833 0 0 0 0.235479,0.0529 10.469562,10.469562 0 0 0 1.322917,0.0238 c 0.359833,0 0.637646,-0.0238 0.637646,-0.0238 0,0 -0.04762,-1.27794 -0.116417,-2.70933 a 38.398979,38.398979 0 0 0 4.360333,-0.35719 c 2.513542,-0.43921 3.561292,-2.72521 3.947584,-3.94758 a 11.538479,11.538479 0 0 1 0.246062,1.51606 10.998729,10.998729 0 0 0 0.391583,1.32291 4.4106041,4.4106041 0 0 0 0.529167,0.97367 c 1.852083,-0.63235 0.73025,-1.5875 0.341313,-1.99496 -0.388938,-0.40746 0.264583,-0.75406 0.264583,-0.75406 0,0 0.513292,-0.34131 0.463021,-0.65617 -0.05027,-0.31485 -0.07408,-0.65616 1.5875,-0.63235 1.661583,0.0238 1.558396,-1.35467 1.558396,-1.35467 z M 29.12502,119.77757 c 0.02117,0.13758 0.264583,1.63777 0.460375,2.032 a 2.6458333,2.6458333 0 0 1 0.05556,0.79375 c -0.981604,-0.0794 -2.005541,-0.12171 -2.005541,-0.12171 a 0.24870833,0.24870833 0 0 1 0.05292,0.12435 l -0.156104,-0.0344 -0.22225,-0.0529 1.80975,-2.75431 z m -3.58775,5.70441 1.701271,0.26459 0.142875,0.0212 a 5.5562499,5.5562499 0 0 0 -0.08731,0.79375 c 0,0.0265 0.03704,0.0556 0.0926,0.09 a 2.0928541,2.0928541 0 0 0 -0.03175,0.40481 c 0.02646,0.13229 0.820209,0.42334 1.733021,0.66411 -0.01323,0.0503 -0.02381,0.0979 -0.03704,0.14023 v 0 c -0.80698,-0.42334 -2.074334,-0.62177 -2.219855,-0.93663 -0.14552,-0.31485 -4.46352,-1.82298 -4.46352,-1.82298 l -0.428625,-0.21431 1.135062,0.21431 0.312208,-0.0318 a 16.861896,16.861896 0 0 0 2.151063,0.41275 z"
       fill="url(#a17f7adb-619f-4eca-9f9e-ffa615402df6-198)"
       id="path123"
       style="fill:url(#linearGradient436);stroke-width:0.264583" />
    <path
       d="m 309.68821,109.64373 c 0,0 -0.67468,4.08516 -4.10633,4.68841 -3.43164,0.60325 -14.8881,0.48419 -14.8881,0.48419 0,0 -6.55109,-0.94456 -8.91911,-6.477 -2.36802,-5.53244 -3.89202,-7.73642 -1.85208,-7.83167 2.03994,-0.0953 12.98046,3.70417 13.60752,3.7465 0.62706,0.0423 16.764,-8.4111 16.1581,5.38957 z"
       fill="#65617d"
       id="path125"
       style="stroke-width:0.264583" />
    <path
       d="m 309.68821,109.64373 c 0,0 -0.67468,4.08516 -4.10633,4.68841 -3.43164,0.60325 -14.8881,0.48419 -14.8881,0.48419 0,0 -6.55109,-0.94456 -8.91911,-6.477 -2.36802,-5.53244 -3.89202,-7.73642 -1.85208,-7.83167 2.03994,-0.0953 12.98046,3.70417 13.60752,3.7465 0.62706,0.0423 16.764,-8.4111 16.1581,5.38957 z"
       opacity="0.05"
       id="path127"
       style="stroke-width:0.264583" />
    <path
       d="m 278.96744,114.19191 a 1.5636875,1.5636875 0 0 0 1.28059,0.96573 1.7515416,1.7515416 0 0 0 0.41539,-0.0238 c 1.25677,-0.21696 4.20423,-0.72496 5.24405,-0.52917 0.62441,0.11377 1.78064,-0.0582 2.6035,-0.21166 0.54768,-0.10319 0.94985,-0.20109 0.94985,-0.20109 0,0 -0.96838,-3.21468 -1.08744,-3.30993 -0.11906,-0.0952 -4.35239,-2.64584 -4.35239,-2.64584 l -3.34963,-0.24077 v 0 a 1.7700625,1.7700625 0 0 0 -1.13771,0.66675 c -0.35189,0.42863 -0.65616,1.12977 -0.67733,2.28071 -0.0556,2.83369 0.11112,3.24908 0.11112,3.24908 z"
       fill="#3f3d56"
       id="path129"
       style="stroke-width:0.264583" />
    <path
       d="m 278.96744,114.19191 a 1.5636875,1.5636875 0 0 0 1.28059,0.96573 14.224,14.224 0 0 1 -0.91017,-1.32291 l 0.0185,-2.34421 a 4.1380833,4.1380833 0 0 1 1.32292,-3.47927 v 0 c 0,0 -1.76477,0.11906 -1.81504,2.94746 -0.0503,2.82839 0.10318,3.2332 0.10318,3.2332 z"
       opacity="0.05"
       id="path131"
       style="stroke-width:0.264583" />
    <path
       d="m 293.49571,109.06429 3.11944,-2.44211 4.90538,-4.83393 -1.32292,-0.0609 c -0.19844,0.127 -0.75406,0.52917 -0.77523,1.01071 -0.0238,0.59002 -1.32292,0.0423 -2.00289,0.37836 -0.67998,0.33602 -3.98728,4.57729 -4.56671,4.54818 -0.57944,-0.0291 -1.03982,-0.29368 -1.28323,0.11907 l -0.0159,0.0264 z"
       opacity="0.1"
       id="path133"
       style="stroke-width:0.264583" />
    <path
       d="m 279.52572,108.66741 c 0.11112,0.0529 0.22489,0.10584 0.33866,0.15346 2.36802,1.016 5.29167,3.14325 5.51127,3.52954 0.13229,0.23548 1.82827,1.26471 3.13532,2.0373 0.54768,-0.10319 0.94985,-0.20109 0.94985,-0.20109 0,0 -0.96838,-3.21469 -1.08744,-3.30994 -0.11906,-0.0953 -4.35239,-2.64583 -4.35239,-2.64583 l -3.34963,-0.24077 v 0 a 1.7700625,1.7700625 0 0 0 -1.14564,0.67733 z"
       opacity="0.1"
       id="path135"
       style="stroke-width:0.264583" />
    <path
       d="m 272.95347,101.74062 c 0.3122,0.77259 2.94745,3.7465 2.94745,3.7465 0,0 1.66688,2.17488 4.03755,3.175 2.37066,1.00013 5.29166,3.14325 5.50862,3.52954 0.14023,0.24871 2.02935,1.38642 3.35756,2.16694 l 0.29898,0.17463 0.65881,0.38364 0.34925,0.19844 c 0,0 0.80963,-0.64823 1.61661,-1.30175 0.80698,-0.65352 1.5875,-1.29381 1.5875,-1.32292 0,-0.0291 0.33866,-0.89429 0.26458,-0.94191 -0.0741,-0.0476 -0.20373,-0.35984 -0.51064,-0.74877 a 3.4078333,3.4078333 0 0 0 -1.23032,-1.016 3.5057291,3.5057291 0 0 1 -1.5875,-1.66423 c 0,0 -0.10583,-0.0767 -0.26458,-0.17992 a 3.2755416,3.2755416 0 0 0 -1.08479,-0.48419 c -0.52917,-0.0661 -1.524,-1.15358 -1.524,-1.15358 a 2.9580416,2.9580416 0 0 1 -0.94192,-0.98954 c -0.26458,-0.52917 -4.00314,-3.10621 -4.34975,-3.34434 l 9.08579,5.83671 2.17488,1.397 3.11944,-2.43946 4.90537,-4.83393 -1.61925,-0.0741 c -2.38125,-0.10318 -6.61458,-0.26458 -7.14375,-0.14287 a 4.1513124,4.1513124 0 0 1 -1.32292,0.0873 c 0,0 -1.2065,0.0529 -2.00554,-0.36777 -0.79904,-0.42069 -2.05581,-0.61913 -2.20133,-0.93133 -0.14552,-0.31221 -4.42119,-1.80975 -4.42119,-1.80975 0,0 -5.82083,-3.09298 -7.9031,-1.25677 -2.08227,1.8362 -2.11667,3.52954 -1.80181,4.30741 z"
       fill="#65617d"
       id="path137"
       style="stroke-width:0.264583" />
    <path
       d="m 291.73094,84.00031 0.74877,2.48973 0.96838,5.60652 3.55335,0.24077 1.016,-1.69333 1.02659,-1.70392 c 0,0 0.64029,-2.26483 1.10066,-4.45558 0.40482,-1.9394 0.67205,-3.82323 0.23019,-4.02696 -0.39423,-0.17992 -0.65087,-0.83344 -0.82021,-1.53723 -0.0212,-0.0847 -0.0397,-0.17463 -0.0556,-0.26458 a 13.932958,13.932958 0 0 1 -0.23812,-1.80182 c 0,0 -7.44273,-0.38629 -6.40292,2.68288 a 4.8974374,4.8974374 0 0 1 0.28046,1.63248 c 0,0.14287 0,0.2831 -0.0265,0.41539 a 3.4792708,3.4792708 0 0 1 -1.38113,2.41565 z"
       fill="#ee8e9e"
       id="path139"
       style="stroke-width:0.264583" />
    <path
       d="m 290.18578,83.59021 0.26458,4.23333 0.60325,3.60098 0.67733,1.66952 0.6059,9.12283 c 0,0 5.82083,0.67469 7.24429,-0.0132 a 0.60324999,0.60324999 0 0 0 0.26458,-0.19843 c 1.71186,-2.58498 1.15094,-10.07269 1.15094,-10.07269 l 0.65088,-4.83394 -0.43392,-2.50825 -1.05833,-0.11112 -0.80963,-0.0873 c 0,0 -0.18256,0.2249 -0.44714,0.57415 -0.71702,0.94456 -2.03465,2.80723 -1.94469,3.58246 0.11906,1.05833 -0.14552,2.15106 -0.55827,2.32039 -0.41275,0.16934 -0.74877,0.46038 -0.82021,0.16934 a 1.2991042,1.2991042 0 0 1 -0.0741,-0.77259 c 0.0741,-0.41275 -0.31485,-1.66952 -0.31485,-1.66952 0,0 -0.65088,-1.47373 -0.60325,-2.10079 0.0476,-0.62706 -0.0714,-1.35467 -0.26459,-1.524 -0.19314,-0.16933 -0.46037,-0.33867 -0.24341,-1.11125 0.21695,-0.77258 -0.9525,-2.27806 -0.9525,-2.27806 z"
       fill="#e3e8f4"
       id="path141"
       style="stroke-width:0.264583" />
    <path
       d="m 297.88251,94.15237 0.24341,7.22577 1.39436,0.77523 a 0.62706249,0.62706249 0 0 0 0.26458,-0.20108 c 1.71185,-2.58498 1.15094,-10.07269 1.15094,-10.07269 l 0.65352,-4.83394 -0.43656,-2.50825 -1.05834,-0.11112 c 0.40746,-1.9394 0.67204,-3.82058 0.23019,-4.02696 -0.39423,-0.17992 -0.65087,-0.83344 -0.81756,-1.53458 v 0 l -0.75406,5.11175 c 0,0 0.0635,0.46037 0.0847,0.93662 a 2.6458333,2.6458333 0 0 1 -0.0609,0.89959 3.0030208,3.0030208 0 0 0 -0.0476,1.20914 c -0.43657,0.76729 -0.65353,2.19075 -0.75936,3.56394 -0.14287,1.82562 -0.0873,3.56658 -0.0873,3.56658 z"
       opacity="0.1"
       id="path143"
       style="stroke-width:0.264583" />
    <path
       d="m 311.63027,72.21839 c 0,0 1.21973,0.15081 1.60602,0.65881 0.38629,0.508 1.40229,0.58208 1.40229,0.58208 0,0 1.15888,0.38629 1.13507,0.48154 -0.0238,0.0953 0.33866,0.24342 1.05833,0.43657 0.71967,0.19314 1.9341,0.89429 1.9341,1.05833 0,0.16404 1.90765,2.05317 1.90765,2.24631 0,0.19315 0.57944,0.91811 0.508,2.19869 -0.0714,1.28058 -0.14552,2.91042 0.14552,3.175 0.29104,0.26458 0,1.3044 0,1.3044 a 0.71437499,0.71437499 0 0 0 -0.0238,0.77523 c 0.24077,0.43391 -0.0503,2.24631 -0.0503,2.24631 l 0.0265,1.88648 c 0,0 -0.26458,1.18268 0.0476,1.23296 0.31221,0.0503 -0.0476,0.57943 -0.0476,0.57943 0,0 -0.26458,0.96573 0.0714,1.40229 0.33602,0.43657 0.43392,2.29394 0.43392,2.29394 l 5.1726,7.51681 c 0,0 0.0741,1.37848 -1.56898,1.35467 -1.64306,-0.0238 -1.62189,0.31486 -1.57162,0.62706 0.0503,0.31221 -0.46038,0.65352 -0.46038,0.65352 0,0 -0.65087,0.33867 -0.26458,0.74878 0.38629,0.4101 1.49754,1.35466 -0.33867,1.98172 a 4.3762083,4.3762083 0 0 1 -0.52917,-0.96572 10.969625,10.969625 0 0 1 -0.38629,-1.3044 c 0,0 -0.16933,-1.83885 -0.508,-2.07963 -0.33866,-0.24077 -0.29104,-1.40229 -0.29104,-1.40229 0,0 0.48419,-0.94191 -0.19314,-1.32291 -0.67734,-0.381 -10.48809,-5.82084 -10.48809,-5.82084 l -0.23812,-7.22841 c 0,0 -0.16934,-5.34194 0.84666,-7.13052 a 3.0030208,3.0030208 0 0 1 0.0476,-1.20915 c 0.16934,-0.43392 -0.0238,-1.83621 -0.0238,-1.83621 z"
       fill="#3f3d56"
       id="path145"
       style="stroke-width:0.264583" />
    <path
       d="m 293.19409,81.64816 c 0,0 -2.42888,-0.50006 -3.0824,-0.16139 -0.65352,0.33866 -1.93145,0.60325 -2.11666,0.79375 -0.18521,0.1905 -0.67469,0.0503 -1.11125,1.18533 -0.43656,1.13506 -0.48154,2.29658 -1.03981,2.8284 -0.55828,0.53181 -0.84403,0.89429 -0.86784,1.28058 -0.0238,0.38629 0.0714,0.48419 -0.14552,0.60325 -0.21696,0.11906 -0.52917,0.62971 -0.43656,0.82285 0.0926,0.19315 5.02708,4.44765 5.02708,4.44765 0,0 0.24342,1.61925 0.46038,2.02935 0.21695,0.41011 -0.24077,6.0669 -0.72496,6.45319 -0.48419,0.38629 3.25173,0.35454 3.25173,0.35454 0,0 0.16933,-3.70416 0.31485,-3.90525 0.14552,-0.20108 -0.0979,-4.1566 -0.0979,-4.1566 0,0 -0.0238,-3.38402 0.29104,-4.27831 0.31486,-0.89429 0.26459,-3.86821 0.26459,-3.86821 0,0 0.27781,-1.78329 0.61648,-2.19869 0.33866,-0.41539 -0.60325,-2.23044 -0.60325,-2.23044 z"
       opacity="0.1"
       id="path147"
       style="stroke-width:0.264583" />
    <path
       d="m 293.12265,81.57673 c 0,0 -2.42887,-0.50007 -3.08239,-0.16405 -0.65352,0.33603 -1.93411,0.6059 -2.11667,0.79375 -0.18256,0.18786 -0.67733,0.0476 -1.11125,1.18534 -0.43392,1.13771 -0.48419,2.29394 -1.03981,2.82575 -0.55563,0.53181 -0.84667,0.89429 -0.87048,1.28058 -0.0238,0.38629 0.0741,0.48419 -0.14552,0.6059 -0.21961,0.12171 -0.52917,0.62706 -0.43392,0.82021 0.0953,0.19314 5.02708,4.44764 5.02708,4.44764 0,0 0.24077,1.61925 0.46038,2.02936 0.2196,0.4101 -0.24342,6.06689 -0.7276,6.45318 -0.48419,0.38629 3.26495,0.3519 3.26495,0.3519 0,0 0.16934,-3.70417 0.31221,-3.90261 0.14288,-0.19843 -0.0952,-4.15925 -0.0952,-4.15925 0,0 -0.0238,-3.38137 0.29104,-4.27566 0.31486,-0.89429 0.27782,-3.86821 0.27782,-3.86821 0,0 0.27781,-1.78329 0.61647,-2.19869 0.33867,-0.41539 -0.62706,-2.22514 -0.62706,-2.22514 z"
       fill="#3f3d56"
       id="path149"
       style="stroke-width:0.264583" />
    <path
       d="m 292.86865,79.5315 a 4.8974374,4.8974374 0 0 1 0.28046,1.63248 5.5562499,5.5562499 0 0 0 6.35,-2.51355 13.932958,13.932958 0 0 1 -0.23812,-1.80181 c 0,0 -7.43215,-0.38894 -6.39234,2.68288 z"
       opacity="0.1"
       id="path151"
       style="stroke-width:0.264583" />
    <path
       d="m 289.19359,75.71091 a 5.5377291,5.5377291 0 1 0 0.12171,-1.150933 5.4795208,5.4795208 0 0 0 -0.12171,1.150933 z"
       fill="#ee8e9e"
       id="path153"
       style="stroke-width:0.264583" />
    <path
       d="m 285.64024,88.52733 -1.32292,0.4101 a 0.68527082,0.68527082 0 0 1 -0.26458,0.72496 0.79374999,0.79374999 0 0 0 -0.33602,0.72496 c 0,0 -0.14553,0.52917 -0.48419,0.65352 -0.33867,0.12436 -0.55563,0.91811 -0.55563,0.91811 l -1.11125,1.28058 c 0,0 -0.41275,0.33867 -0.33866,0.508 0.0741,0.16933 -0.43657,0.21696 -0.43657,0.21696 l 0.26459,4.30212 2.29658,0.43657 1.4261,-0.14553 1.15888,-0.43391 1.016,-0.6059 0.45773,-1.18269 2.032,-3.09562 z"
       fill="#3f3d56"
       id="path155"
       style="stroke-width:0.264583" />
    <path
       d="m 281.12115,94.29525 c 0,0 -2.94746,-4.25186 -5.14879,-1.95792 -2.20133,2.29394 0.89429,6.01927 1.61925,5.89756 0.72496,-0.12171 4.18306,-0.31485 4.18306,-0.31485 z"
       fill="#ee8e9e"
       id="path157"
       style="stroke-width:0.264583" />
    <rect
       x="283.5827"
       y="-48.607708"
       width="15.433146"
       height="11.98298"
       rx="0.40745834"
       transform="rotate(27.04)"
       fill="#3f3d56"
       id="rect159"
       style="stroke-width:0.264583" />
    <rect
       x="284.82581"
       y="-47.530842"
       width="12.972521"
       height="9.7763548"
       transform="rotate(27.04)"
       fill="#6c63ff"
       id="rect161"
       style="stroke-width:0.264583" />
    <circle
       cx="272.63333"
       cy="91.273705"
       r="0.21166667"
       fill="#e6e8ec"
       id="circle163"
       style="stroke-width:0.264583" />
    <circle
       cx="285.14017"
       cy="97.681908"
       r="0.35189584"
       fill="#e6e8ec"
       id="circle165"
       style="stroke-width:0.264583" />
    <path
       d="m 279.21351,95.18954 c -0.0265,3.19087 6.57225,3.86821 6.57225,3.86821 l 1.68539,0.26458 0.75671,0.11906 0.31486,-3.11679 c 0,0 -0.34661,-0.0529 -0.77788,-0.15346 -0.64029,-0.14816 -1.46844,-0.40481 -1.64042,-0.76729 -0.27781,-0.6006 -6.89239,-3.40519 -6.91091,-0.21431 z"
       fill="#ee8e9e"
       id="path167"
       style="stroke-width:0.264583" />
    <path
       d="m 289.3153,74.559977 a 0.65616666,0.65616666 0 0 1 0.40481,0.179916 c 0.18521,0.198438 0.19579,0.550337 0.43921,0.672037 a 0.50799999,0.50799999 0 0 0 0.28839,0.0318 c 0.64294,-0.09 1.01336,-0.814912 1.63248,-1.015995 a 1.6377708,1.6377708 0 0 1 1.0795,0.0926 0.84402082,0.84402082 0 0 1 0.35984,0.230188 c 0.20637,0.264583 0.0609,0.661457 0.1561,0.984257 0.13229,0.44979 0.6694,0.62706 1.13242,0.68527 0.46302,0.0582 0.98689,0.0926 1.29646,0.44185 a 1.17475,1.17475 0 0 1 0.23018,0.93663 0.73024999,0.73024999 0 0 0 0,0.3466 c 0.127,0.36248 0.75407,0.30692 0.91811,0.0212 0.12171,-0.20902 0.0847,-0.381 0.36777,-0.43921 a 1.1985625,1.1985625 0 0 1 0.59002,0.10319 4.3762083,4.3762083 0 0 0 1.53194,0.23548 5.5350833,5.5350833 0 1 0 -10.42459,-3.505737 z"
       opacity="0.1"
       id="path169"
       style="stroke-width:0.264583" />
    <path
       d="m 296.33205,77.99956 a 0.73289582,0.73289582 0 0 1 0,-0.3466 1.1668125,1.1668125 0 0 0 -0.23019,-0.93398 c -0.30956,-0.3519 -0.83079,-0.38365 -1.29646,-0.4445 -0.46566,-0.0609 -1.00012,-0.23548 -1.13241,-0.68527 -0.0953,-0.3228 0.0503,-0.717025 -0.15611,-0.981608 a 0.79374999,0.79374999 0 0 0 -0.35983,-0.230188 1.6404166,1.6404166 0 0 0 -1.0795,-0.09525 c -0.61913,0.201083 -0.98954,0.926046 -1.63248,1.015996 a 0.48683333,0.48683333 0 0 1 -0.2884,-0.0318 c -0.24341,-0.1217 -0.26458,-0.4736 -0.43921,-0.672038 -0.29368,-0.309562 -0.85195,-0.108479 -1.20914,-0.338666 a 1.1138958,1.1138958 0 0 1 -0.39158,-0.716971 3.476625,3.476625 0 0 1 -0.10584,-1.603375 c 0.20902,-0.896937 1.01336,-1.513417 1.524,-2.283354 0.4789,-0.714375 0.74877,-1.61925 1.46579,-2.092854 0.71702,-0.473604 1.64042,-0.367771 2.45269,-0.127 a 6.9214999,6.9214999 0 0 0 1.14829,0.301625 c 0.65352,0.07938 1.30969,-0.0979 1.96586,-0.119063 a 4.2068749,4.2068749 0 0 1 2.59821,0.79375 1.4208125,1.4208125 0 0 1 0.42333,0.428625 2.2251458,2.2251458 0 0 1 0.1905,0.769938 3.9105416,3.9105416 0 0 0 0.51064,1.412875 c 0.20109,0.341312 0.45773,0.648229 0.6403,1.000125 a 1.5504583,1.5504583 0 0 1 0.17462,1.145645 c -0.0635,0.198438 -0.18521,0.378355 -0.23283,0.582084 -0.10584,0.470958 0.20373,0.923396 0.41539,1.357314 a 2.5452916,2.5452916 0 0 1 0.28311,1.28852 1.6139583,1.6139583 0 0 1 -0.57944,1.15887 2.0928541,2.0928541 0 0 1 -1.22502,0.37307 4.4053124,4.4053124 0 0 1 -1.56104,-0.23548 1.2303125,1.2303125 0 0 0 -0.59002,-0.10319 c -0.28311,0.0582 -0.24607,0.23019 -0.36777,0.43921 -0.1614,0.28046 -0.78582,0.33602 -0.91546,-0.0265 z"
       fill="#3f3d56"
       id="path171"
       style="stroke-width:0.264583" />
    <path
       d="m 293.35019,109.20716 3.11944,-2.43945 4.90538,-4.83394 -1.61925,-0.0741 a 1.0583333,1.0583333 0 0 0 -0.34132,0.66146 c -0.0238,0.59002 -1.32291,0.0397 -2.00289,0.37836 -0.67998,0.33866 -3.98727,4.57729 -4.56671,4.54818 -0.57944,-0.0291 -1.03981,-0.29368 -1.28323,0.11642 l -0.0159,0.0265 a 0.68262499,0.68262499 0 0 1 -0.37042,0.2196 z"
       opacity="0.1"
       id="path173"
       style="stroke-width:0.264583" />
    <path
       d="m 287.06634,109.03783 1.56633,5.00327 0.24607,0.79375 0.74612,-0.20373 1.64571,-0.45244 7.32367,-2.01083 a 6.3685208,6.3685208 0 0 0 2.64583,-0.70379 7.9824791,7.9824791 0 0 1 4.55083,-0.99219 c 0.96838,0.09 2.04523,-0.32808 2.93952,-1.97908 0,0 2.02936,-5.99281 -3.09298,-7.70996 -5.12233,-1.71715 -5.36839,0.91281 -5.36839,0.91281 l -0.0714,0.0423 c -0.19844,0.127 -0.75406,0.52916 -0.77523,1.0107 -0.0238,0.59003 -1.32292,0.0423 -2.0029,0.37836 -0.67998,0.33602 -3.98727,4.57729 -4.5667,4.54819 -0.57944,-0.0291 -1.03982,-0.29369 -1.28323,0.11906 l -0.0159,0.0265 c -0.17992,0.24606 -0.71702,0.30427 -1.07421,0.31221 a 3.175,3.175 0 0 1 -0.33338,0 l -0.0476,0.0132 -0.37041,0.11113 z"
       fill="#65617d"
       id="path175"
       style="stroke-width:0.264583" />
    <path
       d="m 287.47115,99.32498 0.75671,0.11906 0.31486,-3.11679 c 0,0 -0.34661,-0.0529 -0.77788,-0.15346 0.11377,0.43656 -0.14552,2.11667 -0.29369,3.15119 z"
       opacity="0.1"
       id="path177"
       style="stroke-width:0.264583" />
    <path
       d="m 307.23553,84.75702 c 0,0 2.24631,-0.65352 1.69068,5.72823 a 17.8435,17.8435 0 0 1 -4.71222,10.41664 c 0,0 -4.78632,2.10079 -6.93738,1.76213 -2.15106,-0.33867 -3.72004,-0.41011 -3.72004,-0.41011 a 5.4689374,5.4689374 0 0 0 -2.17752,-0.57943 c -1.2065,-0.0476 -3.74386,-0.79375 -3.79413,-1.03982 -0.0503,-0.24606 0.62971,-3.79412 0.33867,-4.0587 0,0 3.38402,0.13758 3.72269,0.381 0.33866,0.24341 0.82285,0.0714 1.18533,0 0.36248,-0.0714 1.47373,-1.03453 3.67242,-0.18786 0,0 0.74877,0.0714 1.03981,-0.12171 a 1.0398125,1.0398125 0 0 1 0.75671,-0.0476 2.0769791,2.0769791 0 0 0 0.52916,-0.26459 c 0.0714,-0.0952 0.65353,0 0.65353,0 a 0.26458333,0.26458333 0 0 0 0.36247,-0.16933 1.5875,1.5875 0 0 1 0.33867,-0.52917 c 0,0 0.65088,-3.67241 1.88383,-5.05089 a 0.79374999,0.79374999 0 0 0 0.26459,-0.70115 c -0.10054,-0.39158 2.00289,-5.90285 4.90273,-5.12762 z"
       opacity="0.1"
       id="path179"
       style="stroke-width:0.264583" />
    <path
       d="m 307.17467,84.26489 c 0,0 2.24896,-0.65087 1.69334,5.72823 a 17.830271,17.830271 0 0 1 -4.71223,10.41665 c 0,0 -4.78632,2.10344 -6.93738,1.76477 -2.15106,-0.33867 -3.72269,-0.41804 -3.72269,-0.41804 a 5.4477708,5.4477708 0 0 0 -2.17487,-0.57944 c -1.20915,-0.0503 -3.7465,-0.79375 -3.79412,-1.03981 -0.0476,-0.24607 0.62706,-3.79413 0.33866,-4.06136 0,0 3.38402,0.14023 3.72269,0.38365 0.33867,0.24342 0.82021,0.0688 1.18269,0 0.36248,-0.0688 1.47373,-1.03452 3.67506,-0.1905 0,0 0.74877,0.0741 1.03717,-0.11906 a 1.0583333,1.0583333 0 0 1 0.7567,-0.0503 2.1986875,2.1986875 0 0 0 0.52917,-0.26459 c 0.0714,-0.0979 0.65088,0 0.65088,0 a 0.26458333,0.26458333 0 0 0 0.36247,-0.16933 1.5875,1.5875 0 0 1 0.33867,-0.52917 c 0,0 0.65352,-3.67241 1.88648,-5.05089 a 0.79374999,0.79374999 0 0 0 0.26458,-0.70115 c -0.0979,-0.381 2.0029,-5.88433 4.90273,-5.11969 z"
       fill="#3f3d56"
       id="path181"
       style="stroke-width:0.264583" />
    <path
       d="m 289.72011,108.24408 3.19088,3.86292 0.0212,-0.0212 c 0.0238,-0.0741 0.33866,-0.89429 0.26458,-0.94456 -0.0741,-0.0503 -0.62706,-1.25677 -1.73831,-1.76477 a 3.2967083,3.2967083 0 0 1 -1.3679,-1.24354 z"
       opacity="0.1"
       id="path183"
       style="stroke-width:0.264583" />
    <path
       d="m 289.76244,114.9301 0.34925,0.19844 c 0,0 0.80963,-0.64823 1.61661,-1.30175 0.80698,-0.65352 1.5875,-1.29381 1.5875,-1.32292 0,-0.0291 0.33866,-0.89429 0.26458,-0.94191 -0.0741,-0.0476 -0.20373,-0.35984 -0.51064,-0.74878 -2.1643,-0.60589 -0.79375,0.89694 -0.60325,0.96573 0,0 -2.63261,-0.60589 -2.77813,2.26484 a 3.5507083,3.5507083 0 0 0 0.0741,0.88635 z"
       opacity="0.1"
       id="path185"
       style="stroke-width:0.264583" />
    <path
       d="m 292.43209,116.14454 0.46037,0.26458 4.66461,0.11906 a 9.3424374,9.3424374 0 0 0 1.651,0.79375 1.5504583,1.5504583 0 0 0 0.23283,0.0503 10.31875,10.31875 0 0 0 1.30175,0.0238 c 0.35719,0 0.63236,-0.0238 0.63236,-0.0238 0,0 -0.21961,-5.88169 -0.3863,-6.50082 -0.0794,-0.29633 -0.47095,-0.23283 -0.85725,-0.0847 a 5.8446458,5.8446458 0 0 0 -0.83608,0.42333 c 0,0 -1.97908,0.19315 -2.29394,0.36248 -0.31485,0.16933 -1.20914,-0.0979 -1.76477,0 -0.55562,0.0979 -1.54781,-0.65352 -1.54781,-0.65352 -2.70669,-0.89429 -1.18269,0.77258 -0.98954,0.84666 0,0 -2.64583,-0.60589 -2.78077,2.26484 -0.13494,2.87073 2.51354,2.11402 2.51354,2.11402 z"
       fill="#3f3d56"
       id="path187"
       style="stroke-width:0.264583" />
    <path
       d="m 299.17632,113.87441 c 0.0503,1.21709 1.00012,2.72786 1.56633,3.5269 0.35719,0 0.63236,-0.0238 0.63236,-0.0238 0,0 -0.21961,-5.88169 -0.3863,-6.50082 -0.0794,-0.29633 -0.47095,-0.23283 -0.85725,-0.0847 -0.46831,0.87841 -0.99747,2.09814 -0.95514,3.08239 z"
       fill="#565387"
       id="path189"
       style="stroke-width:0.264583" />
    <path
       d="m 299.17632,113.87441 c 0.0503,1.21709 1.00012,2.72786 1.56633,3.5269 0.35719,0 0.63236,-0.0238 0.63236,-0.0238 0,0 -0.21961,-5.88169 -0.3863,-6.50082 -0.0794,-0.29633 -0.47095,-0.23283 -0.85725,-0.0847 -0.46831,0.87841 -0.99747,2.09814 -0.95514,3.08239 z"
       opacity="0.1"
       id="path191"
       style="stroke-width:0.264583" />
    <path
       d="m 298.37728,114.03581 c 0.32279,1.17475 0.3175,2.49237 0.83079,3.29142 a 1.5504583,1.5504583 0 0 0 0.23283,0.0503 10.31875,10.31875 0 0 0 1.30175,0.0238 c 0.35719,0 0.63236,-0.0238 0.63236,-0.0238 0,0 -0.21961,-5.88169 -0.3863,-6.50082 -0.0794,-0.29633 -0.47095,-0.23283 -0.85725,-0.0847 a 5.8446458,5.8446458 0 0 0 -0.83608,0.42333 c 0,0 -1.32821,1.31498 -0.9181,2.82046 z"
       opacity="0.05"
       id="path193"
       style="stroke-width:0.264583" />
    <path
       d="m 282.28532,102.11104 c 0,0 2.31775,0.75142 4.28096,3.42371 z"
       opacity="0.1"
       id="path195"
       style="stroke-width:0.264583" />
    <path
       d="m 301.11307,73.107414 c 0,0.01852 0,0.0344 -0.0132,0.05292 a 1.4578541,1.4578541 0 0 1 -0.082,0.201083 1.8520833,1.8520833 0 0 1 0.0953,-0.254 z"
       id="path197"
       style="opacity:0.1;stroke-width:0.264583" />
    <path
       d="m 288.00561,71.93531 a 2.0663958,2.0663958 0 0 1 0.17992,-0.486833 c 0,0.03969 -0.0265,0.08202 -0.037,0.124354 a 3.5136666,3.5136666 0 0 0 0.10848,1.603375 1.1218333,1.1218333 0 0 0 0.38893,0.717021 c 0.35984,0.230187 0.91811,0.0291 1.2118,0.338666 0.1852,0.198438 0.19579,0.550334 0.4392,0.672042 a 0.48683333,0.48683333 0 0 0 0.2884,0.03175 c 0.64294,-0.08996 1.01335,-0.814917 1.63248,-1.016 a 1.6245416,1.6245416 0 0 1 1.0795,0.09525 0.79374999,0.79374999 0 0 1 0.35983,0.230187 c 0.20638,0.264584 0.0609,0.658813 0.15611,0.981608 0.13229,0.44979 0.66939,0.62706 1.13241,0.68527 0.46302,0.0582 0.9869,0.0926 1.29646,0.4445 a 1.1668125,1.1668125 0 0 1 0.23019,0.93398 0.73289582,0.73289582 0 0 0 0,0.3466 c 0.127,0.36248 0.75406,0.30692 0.9181,0.0212 0.12171,-0.20902 0.0847,-0.381 0.36777,-0.43921 a 1.2303125,1.2303125 0 0 1 0.59003,0.10319 4.4053124,4.4053124 0 0 0 1.56104,0.23548 2.0928541,2.0928541 0 0 0 1.22502,-0.37307 1.3705416,1.3705416 0 0 0 0.37571,-0.45773 1.524,1.524 0 0 1 -0.52917,0.82021 2.0928541,2.0928541 0 0 1 -1.22502,0.37306 4.4053124,4.4053124 0 0 1 -1.56104,-0.23547 1.2303125,1.2303125 0 0 0 -0.59002,-0.10319 c -0.28311,0.0582 -0.24607,0.23019 -0.36513,0.43921 -0.16669,0.28575 -0.79375,0.34131 -0.92075,-0.0212 a 0.76729166,0.76729166 0 0 1 0,-0.3466 1.1668125,1.1668125 0 0 0 -0.23019,-0.93398 c -0.30956,-0.3519 -0.83079,-0.38365 -1.29645,-0.4445 -0.46567,-0.0609 -1.00013,-0.23548 -1.13242,-0.68527 -0.0953,-0.3228 0.0503,-0.717025 -0.15611,-0.981608 a 0.79374999,0.79374999 0 0 0 -0.35718,-0.230188 1.6483541,1.6483541 0 0 0 -1.08215,-0.09525 c -0.61648,0.201083 -0.98954,0.926046 -1.63248,1.015996 a 0.48683333,0.48683333 0 0 1 -0.28839,-0.0318 c -0.24342,-0.1217 -0.26459,-0.4736 -0.43921,-0.672038 -0.29369,-0.309562 -0.84931,-0.108479 -1.20915,-0.338666 a 1.1138958,1.1138958 0 0 1 -0.39158,-0.717021 3.476625,3.476625 0 0 1 -0.0979,-1.603375 z"
       id="path199"
       style="opacity:0.1;stroke-width:0.264583" />
    <path
       d="m 301.48878,91.28164 c -0.4445,0.59796 -0.94986,1.15094 -1.34144,1.78065 a 3.3893125,3.3893125 0 0 0 -0.58738,2.11667 c 0.40482,-0.4154 0.59267,-0.99219 0.84667,-1.51342 0.43392,-0.88371 1.0795,-1.63248 1.62719,-2.44211 0.10319,-0.1561 0.76994,-1.05833 0.43392,-1.09537 -0.28046,-0.0397 -0.82815,0.94985 -0.97896,1.15358 z"
       opacity="0.1"
       id="path203"
       style="stroke-width:0.264583" />
    <path
       d="m 315.81596,94.60479 c 0.32014,1.02658 0.64293,2.05581 1.04245,3.05329 a 25.968854,25.968854 0 0 0 2.7014,4.9239 35.734625,35.734625 0 0 0 2.23308,2.92629 c 0.99484,1.1721 2.11667,2.35214 2.45534,3.84968 0.20373,0.86519 0.13493,1.76742 0.2196,2.64584 0.0847,0.87841 0.37306,1.82033 1.09008,2.3495 0.51065,0.37835 1.16417,0.49212 1.79123,0.59002 0.4498,0.0714 1.01071,0.0953 1.24355,-0.29369 a 1.1297708,1.1297708 0 0 0 0.12435,-0.51329 l 0.10848,-1.29381 c 0.0212,-0.28046 0.12171,-0.63765 0.40217,-0.65088 0.28045,-0.0132 0.42068,0.35984 0.65881,0.52917 0.3175,0.22225 0.79375,0 0.96837,-0.33602 a 1.6324791,1.6324791 0 0 0 0.0265,-1.13771 5.3895624,5.3895624 0 0 0 -2.77019,-3.43958 7.9374999,7.9374999 0 0 1 -1.34937,-0.70115 4.6116874,4.6116874 0 0 1 -1.05833,-1.33879 c -2.45534,-4.04283 -4.9239,-8.10683 -6.65692,-12.50686 a 9.2604166,9.2604166 0 0 1 -0.68527,-2.46591 c -0.0847,-0.86519 0.0503,-1.73567 0.10583,-2.6035 a 14.816666,14.816666 0 0 0 -0.42862,-4.63815 3.7041666,3.7041666 0 0 0 -0.44186,-1.12712 c -0.71437,-1.08215 -2.38125,-1.24354 -3.43958,-0.49742 a 3.5454166,3.5454166 0 0 0 -1.37054,2.50561 c -0.0767,0.87841 0.42862,1.78858 0.68527,2.60614 q 1.16681,3.78619 2.34421,7.56444 z"
       fill="#a1616a"
       id="path205"
       style="stroke-width:0.264583" />
    <path
       d="m 315.81596,94.60479 c 0.32014,1.02658 0.64293,2.05581 1.04245,3.05329 a 25.968854,25.968854 0 0 0 2.7014,4.9239 35.734625,35.734625 0 0 0 2.23308,2.92629 c 0.99484,1.1721 2.11667,2.35214 2.45534,3.84968 0.20373,0.86519 0.13493,1.76742 0.2196,2.64584 0.0847,0.87841 0.37306,1.82033 1.09008,2.3495 0.51065,0.37835 1.16417,0.49212 1.79123,0.59002 0.4498,0.0714 1.01071,0.0953 1.24355,-0.29369 a 1.1297708,1.1297708 0 0 0 0.12435,-0.51329 l 0.10848,-1.29381 c 0.0212,-0.28046 0.12171,-0.63765 0.40217,-0.65088 0.28045,-0.0132 0.42068,0.35984 0.65881,0.52917 0.3175,0.22225 0.79375,0 0.96837,-0.33602 a 1.6324791,1.6324791 0 0 0 0.0265,-1.13771 5.3895624,5.3895624 0 0 0 -2.77019,-3.43958 7.9374999,7.9374999 0 0 1 -1.34937,-0.70115 4.6116874,4.6116874 0 0 1 -1.05833,-1.33879 c -2.45534,-4.04283 -4.9239,-8.10683 -6.65692,-12.50686 a 9.2604166,9.2604166 0 0 1 -0.68527,-2.46591 c -0.0847,-0.86519 0.0503,-1.73567 0.10583,-2.6035 a 14.816666,14.816666 0 0 0 -0.42862,-4.63815 3.7041666,3.7041666 0 0 0 -0.44186,-1.12712 c -0.71437,-1.08215 -2.38125,-1.24354 -3.43958,-0.49742 a 3.5454166,3.5454166 0 0 0 -1.37054,2.50561 c -0.0767,0.87841 0.42862,1.78858 0.68527,2.60614 q 1.16681,3.78619 2.34421,7.56444 z"
       opacity="0.05"
       id="path207"
       style="stroke-width:0.264583" />
    <path
       d="m 300.39075,137.83241 a 3.5268958,3.5268958 0 0 0 1.49225,0.17992 c 0.037,-0.41275 0.59266,-0.50535 1.00541,-0.48419 a 1.1482917,1.1482917 0 0 1 0.57415,0.13229 c 0.10319,0.0661 0.18256,0.1614 0.2831,0.23019 a 1.2250208,1.2250208 0 0 0 0.58473,0.15081 l 2.14842,0.17992 c 0.95779,0.082 1.95527,0.1561 2.85221,-0.18521 a 0.98424999,0.98424999 0 0 0 0.45773,-0.30691 c 0.24341,-0.34925 0,-0.84932 -0.33602,-1.10332 -0.33602,-0.254 -0.76994,-0.36777 -1.10861,-0.62706 -0.74612,-0.56885 -0.84931,-1.63248 -1.24354,-2.48444 a 7.3316041,7.3316041 0 0 0 -1.02923,-1.4896 5.7176458,5.7176458 0 0 0 -1.01335,-1.03981 c -0.86254,-0.62177 -1.85209,-0.60855 -2.86544,-0.6985 -0.71437,-0.0635 -1.38642,-0.10584 -1.89971,0.52916 -0.635,0.79375 -0.381,2.38125 -0.34131,3.30729 a 23.936854,23.936854 0 0 0 0.43921,3.70946 z"
       fill="#514e7f"
       id="path209"
       style="stroke-width:0.264583" />
    <path
       d="m 300.39075,137.83241 a 3.5268958,3.5268958 0 0 0 1.49225,0.17992 c 0.037,-0.41275 0.59266,-0.50535 1.00541,-0.48419 a 1.1482917,1.1482917 0 0 1 0.57415,0.13229 c 0.10319,0.0661 0.18256,0.1614 0.2831,0.23019 a 1.2250208,1.2250208 0 0 0 0.58473,0.15081 l 2.14842,0.17992 c 0.95779,0.082 1.95527,0.1561 2.85221,-0.18521 a 0.98424999,0.98424999 0 0 0 0.45773,-0.30691 c 0.24341,-0.34925 0,-0.84932 -0.33602,-1.10332 -0.33602,-0.254 -0.76994,-0.36777 -1.10861,-0.62706 -0.74612,-0.56885 -0.84931,-1.63248 -1.24354,-2.48444 a 7.3316041,7.3316041 0 0 0 -1.02923,-1.4896 5.7176458,5.7176458 0 0 0 -1.01335,-1.03981 c -0.86254,-0.62177 -1.85209,-0.60855 -2.86544,-0.6985 -0.71437,-0.0635 -1.38642,-0.10584 -1.89971,0.52916 -0.635,0.79375 -0.381,2.38125 -0.34131,3.30729 a 23.936854,23.936854 0 0 0 0.43921,3.70946 z"
       opacity="0.05"
       id="path211"
       style="stroke-width:0.264583" />
    <path
       d="m 301.25858,96.04148 c -0.65617,0.21166 -0.94192,1.02922 -0.82021,1.7092 0.12171,0.67998 0.52917,1.26736 0.86519,1.87061 0.95779,1.71185 1.37054,3.66977 2.17488,5.45571 0.6006,1.32291 1.41287,2.56645 2.00554,3.90525 0.59266,1.33879 0.96043,2.84956 0.6006,4.27037 -0.17462,0.69056 -0.51329,1.32292 -0.73819,2.0029 a 11.1125,11.1125 0 0 0 -0.43391,2.26218 42.965687,42.965687 0 0 0 -0.15611,7.84755 2.3442083,2.3442083 0 0 0 0.19579,0.92604 c 0.13494,0.26458 0.36778,0.52916 0.26459,0.79375 -0.045,0.10848 -0.14288,0.18785 -0.1905,0.29369 -0.13759,0.29633 0.13758,0.61118 0.38894,0.82285 a 0.68527082,0.68527082 0 0 1 -0.42069,0.32544 0.99483332,0.99483332 0 0 1 0.42333,1.1086 c -0.22225,0.0344 -0.23548,0.37571 -0.0952,0.55563 0.14023,0.17991 0.36248,0.29104 0.46302,0.49477 a 0.69056249,0.69056249 0 0 1 -0.381,0.86783 1.8123958,1.8123958 0 0 1 -1.03716,0.0794 11.377083,11.377083 0 0 1 -1.73303,-0.381 1.254125,1.254125 0 0 1 -1.0107,-1.29646 19.264312,19.264312 0 0 1 -0.11907,-3.24644 c 0.0926,-5.24933 0,-10.50396 -0.22754,-15.75065 -0.0926,-2.11666 -0.7276,-4.16718 -1.54516,-6.11452 a 32.091312,32.091312 0 0 0 -1.50548,-2.91041 c -1.18005,-2.159 -2.2225,-4.55084 -1.95263,-6.99823 0.0291,-0.26459 0.12436,-0.57944 0.38629,-0.62177 a 0.56091666,0.56091666 0 0 1 0.29898,0.0503 13.443479,13.443479 0 0 1 1.57427,0.86783 5.9425416,5.9425416 0 0 0 2.72521,0.80963 z"
       fill="#464353"
       id="path213"
       style="stroke-width:0.264583" />
    <path
       d="m 301.25858,96.04148 c -0.65617,0.21166 -0.94192,1.02922 -0.82021,1.7092 0.12171,0.67998 0.52917,1.26736 0.86519,1.87061 0.95779,1.71185 1.37054,3.66977 2.17488,5.45571 0.6006,1.32291 1.41287,2.56645 2.00554,3.90525 0.59266,1.33879 0.96043,2.84956 0.6006,4.27037 -0.17462,0.69056 -0.51329,1.32292 -0.73819,2.0029 a 11.1125,11.1125 0 0 0 -0.43391,2.26218 42.965687,42.965687 0 0 0 -0.15611,7.84755 2.3442083,2.3442083 0 0 0 0.19579,0.92604 c 0.13494,0.26458 0.36778,0.52916 0.26459,0.79375 -0.045,0.10848 -0.14288,0.18785 -0.1905,0.29369 -0.13759,0.29633 0.13758,0.61118 0.38894,0.82285 a 0.68527082,0.68527082 0 0 1 -0.42069,0.32544 0.99483332,0.99483332 0 0 1 0.42333,1.1086 c -0.22225,0.0344 -0.23548,0.37571 -0.0952,0.55563 0.14023,0.17991 0.36248,0.29104 0.46302,0.49477 a 0.69056249,0.69056249 0 0 1 -0.381,0.86783 1.8123958,1.8123958 0 0 1 -1.03716,0.0794 11.377083,11.377083 0 0 1 -1.73303,-0.381 1.254125,1.254125 0 0 1 -1.0107,-1.29646 19.264312,19.264312 0 0 1 -0.11907,-3.24644 c 0.0926,-5.24933 0,-10.50396 -0.22754,-15.75065 -0.0926,-2.11666 -0.7276,-4.16718 -1.54516,-6.11452 a 32.091312,32.091312 0 0 0 -1.50548,-2.91041 c -1.18005,-2.159 -2.2225,-4.55084 -1.95263,-6.99823 0.0291,-0.26459 0.12436,-0.57944 0.38629,-0.62177 a 0.56091666,0.56091666 0 0 1 0.29898,0.0503 13.443479,13.443479 0 0 1 1.57427,0.86783 5.9425416,5.9425416 0 0 0 2.72521,0.80963 z"
       opacity="0.05"
       id="path215"
       style="stroke-width:0.264583" />
    <path
       d="m 292.3871,89.65973 a 2.2807083,2.2807083 0 0 0 -1.143,-0.35984 c -0.47096,0.0238 -0.87312,0.33338 -1.24089,0.62971 a 12.7,12.7 0 0 0 -1.23825,1.08479 6.5987083,6.5987083 0 0 0 -1.47109,6.52992 c 0.38894,1.16681 1.10067,2.19604 1.80446,3.2041 l 1.42875,2.05317 c 2.18017,3.13002 4.36033,6.26004 6.64369,9.31598 a 0.35454166,0.35454166 0 0 0 0.24871,0.33602 c 0.082,0.0212 0.18521,0.0185 0.23548,0.0873 a 0.24870833,0.24870833 0 0 1 0.0291,0.14023 2.0240625,2.0240625 0 0 1 -0.127,0.66146 0.31485416,0.31485416 0 0 0 -0.0265,0.22754 c 0.0741,0.17198 0.38629,0.0741 0.48683,0.23548 0.0661,0.10583 -0.0159,0.24342 -0.10319,0.33338 -0.0873,0.09 -0.19579,0.1905 -0.17991,0.31485 0.0159,0.12435 0.23283,0.26458 0.22489,0.41804 0,0.09 -0.0794,0.15875 -0.13494,0.23019 a 0.59002083,0.59002083 0 0 0 0.0714,0.75142 c 0.15082,1.49225 -0.66145,2.91041 -0.82285,4.39737 -0.26458,2.3495 0.80698,4.64344 0.93662,7.00088 a 1.8123958,1.8123958 0 0 0 0.14817,0.77258 c 0.21961,0.40746 0.79375,0.65352 0.76465,1.11654 a 4.4714583,4.4714583 0 0 1 -0.1614,0.56092 c -0.045,0.26458 0.082,0.52916 0.0873,0.79375 0.005,0.26458 -0.23019,0.59002 -0.4789,0.48418 q 0.28046,0.93663 0.50007,1.88913 l 5.00062,0.41275 a 4.4370624,4.4370624 0 0 0 -0.045,-1.34938 c -0.10319,-0.48418 -0.32014,-0.93397 -0.43391,-1.41287 a 1.6721666,1.6721666 0 0 1 0.19579,-1.41552 0.55297916,0.55297916 0 0 1 -0.55034,-0.45244 2.1986875,2.1986875 0 0 1 0.0132,-0.77787 c 0.1323,-1.3044 -0.41539,-2.59027 -0.39952,-3.89996 0.0159,-1.03188 0.37836,-2.02406 0.56092,-3.03742 0.39158,-2.16958 -0.0159,-4.52173 0.94985,-6.50346 0.58473,-1.19327 1.39436,-2.51618 0.73819,-3.67241 -0.32279,-0.5715 -0.89429,-0.96309 -1.26735,-1.50284 a 6.1145208,6.1145208 0 0 1 -0.67734,-1.63777 c -0.76993,-2.38125 -2.01612,-4.59316 -3.10885,-6.858 a 7.1437499,7.1437499 0 0 1 -0.6694,-1.80181 9.4456249,9.4456249 0 0 1 -0.0847,-1.66423 24.532166,24.532166 0 0 0 -0.18256,-2.98715 2.841625,2.841625 0 0 0 -0.36248,-1.2356 2.7648958,2.7648958 0 0 0 -0.79375,-0.71173 c -1.64042,-1.12448 -3.59304,-1.76742 -5.36575,-2.70139 z"
       fill="#464353"
       id="path217"
       style="stroke-width:0.264583" />
    <path
       d="m 298.37991,139.66598 a 3.5851041,3.5851041 0 0 0 1.4949,0.17727 c 0.037,-0.41275 0.59002,-0.50536 1.00277,-0.48419 a 1.1482917,1.1482917 0 0 1 0.57415,0.13229 c 0.10318,0.0661 0.18256,0.16404 0.28575,0.23019 a 1.1959167,1.1959167 0 0 0 0.58473,0.15081 l 2.14577,0.17992 c 0.96043,0.082 1.95527,0.15875 2.85485,-0.18521 a 0.95779165,0.95779165 0 0 0 0.45508,-0.30692 c 0.24342,-0.34925 0,-0.84666 -0.33602,-1.10066 -0.33602,-0.254 -0.76993,-0.37042 -1.10595,-0.62971 -0.74878,-0.56886 -0.84932,-1.62984 -1.24619,-2.48179 a 7.1622707,7.1622707 0 0 0 -1.02659,-1.49225 5.7149999,5.7149999 0 0 0 -1.016,-1.03717 c -0.85989,-0.62442 -1.85208,-0.61119 -2.86279,-0.70115 -0.71702,-0.0635 -1.38906,-0.10318 -1.89971,0.52917 -0.635,0.79375 -0.381,2.38125 -0.34395,3.30994 a 23.973896,23.973896 0 0 0 0.4392,3.70946 z"
       fill="#514e7f"
       id="path219"
       style="stroke-width:0.264583" />
    <circle
       cx="320.54407"
       cy="76.046921"
       r="4.9529996"
       fill="#a1616a"
       id="circle221"
       style="stroke-width:0.264583" />
    <path
       d="m 315.87152,77.518 c -0.70908,0.61118 -1.72773,0.65616 -2.65906,0.75141 a 16.7005,16.7005 0 0 0 -5.72294,1.6563 2.06375,2.06375 0 0 0 -0.66146,0.45508 1.8679583,1.8679583 0 0 0 -0.33602,0.70908 4.6328541,4.6328541 0 0 0 -0.18785,1.72244 4.9080208,4.9080208 0 0 0 0.47889,1.61925 8.7312499,8.7312499 0 0 0 3.06917,3.50044 2.2489583,2.2489583 0 0 0 0.77787,0.37306 c 0.65088,0.13494 1.28059,-0.24077 1.92352,-0.41011 a 3.14325,3.14325 0 0 1 1.77536,0.0556 c 0.52916,0.17991 1.1086,0.508 1.63248,0.28839 a 1.6748125,1.6748125 0 0 0 0.73818,-0.84137 28.630562,28.630562 0 0 0 1.35203,-2.94746 11.337396,11.337396 0 0 1 0.48947,-1.15358 c 0.57415,-1.09273 1.56634,-1.93675 2.06111,-3.07182 a 0.67468749,0.67468749 0 0 0 0.0476,-0.57679 0.79374999,0.79374999 0 0 0 -0.36513,-0.27781 8.6809791,8.6809791 0 0 1 -1.97908,-1.5531 c -0.32544,-0.31221 -0.9234,-1.15623 -1.39171,-1.23032 -0.52652,-0.09 -0.68527,0.62442 -1.04246,0.93134 z"
       fill="#a1616a"
       id="path223"
       style="stroke-width:0.264583" />
    <path
       d="m 315.98794,87.58275 c -0.57415,0.26458 -1.25148,0.15081 -1.87325,0.0212 -1.60338,-0.33602 -3.22528,-0.67468 -4.70959,-1.36789 a 2.5505833,2.5505833 0 0 1 -1.15623,-0.889 2.9104166,2.9104166 0 0 1 -0.32279,-1.10861 l -0.26458,-1.85208 c -0.0952,-0.64294 0.0688,-1.23825 0.0847,-1.88912 a 0.54768749,0.54768749 0 0 0 -0.10848,-0.41011 0.44714583,0.44714583 0 0 0 -0.32544,-0.10319 c -0.74348,0.0132 -1.19327,0.79375 -1.7145,1.32292 a 3.175,3.175 0 0 1 -1.05833,0.70908 c -0.47625,0.1958 -1.05833,0.33338 -1.25677,0.80963 -0.0794,0.19844 -0.0688,0.42333 -0.15346,0.62177 -0.33338,0.79375 -1.75419,0.52917 -2.11667,1.32292 -0.10318,0.22225 -0.0953,0.50006 -0.26458,0.67468 -0.16933,0.17463 -0.48683,0.17198 -0.74877,0.21432 -1.03452,0.16933 -1.53458,1.3626 -2.41829,1.92616 -0.74348,0.47625 -1.70127,0.46567 -2.50296,0.83609 -0.4445,0.20637 -0.83873,0.52916 -1.30969,0.6641 -0.47096,0.13494 -1.00277,0.0635 -1.50812,0.0767 a 0.39422916,0.39422916 0 0 0 -0.29898,0.0979 0.39952083,0.39952083 0 0 0 -0.0503,0.32809 9.1175416,9.1175416 0 0 0 5.63298,7.05908 1.8838333,1.8838333 0 0 1 0.48154,0.23283 c 0.44979,0.33603 0.52916,1.05834 1.03981,1.29646 a 1.0583333,1.0583333 0 0 0 1.08215,-0.23283 9.7049165,9.7049165 0 0 0 0.79375,-0.86254 3.1088541,3.1088541 0 0 1 1.7436,-0.91811 c 0.61383,-0.0979 1.2991,-0.0265 1.79652,-0.40481 a 5.5694791,5.5694791 0 0 0 0.56621,-0.60325 3.556,3.556 0 0 1 1.28323,-0.76729 13.118042,13.118042 0 0 1 4.08252,-0.89694 c 1.3044,-0.0714 2.64583,0.0476 3.87879,-0.37571 a 2.3389166,2.3389166 0 0 0 0.86519,-0.48948 2.6008541,2.6008541 0 0 0 0.57679,-1.00277 7.6729166,7.6729166 0 0 0 0.254,-4.04018 z"
       fill="#6c63ff"
       id="path225"
       style="stroke-width:0.264583" />
    <path
       d="m 309.60354,80.28289 c 0.36512,-0.0344 0.7329,0 1.10067,0 0.43127,0 0.85725,-0.10583 1.28852,-0.10848 a 3.2041041,3.2041041 0 0 1 3.02154,2.29923 0.59531249,0.59531249 0 0 1 0.0185,0.32544 0.2301875,0.2301875 0 0 1 -0.24871,0.16933 5.4848124,5.4848124 0 0 0 -0.55827,-1.11389 3.1300208,3.1300208 0 0 0 -1.66158,-1.15888 4.3021249,4.3021249 0 0 0 -2.04259,-0.0741 c -0.2831,0.0529 -0.55827,0.127 -0.83343,0.20373 l -1.32292,0.36512 c -0.24342,0.0661 -0.48948,0.1323 -0.72496,0.21961 -0.18256,0.0688 -0.49477,0.32014 -0.67469,0.33073 -0.24341,0 -0.0476,-0.21167 0.0609,-0.35454 a 1.7594791,1.7594791 0 0 1 0.86519,-0.62971 7.4929999,7.4929999 0 0 1 1.71185,-0.47361 z"
       fill="#6c63ff"
       id="path227"
       style="stroke-width:0.264583" />
    <path
       d="m 312.94258,95.16041 c 0.32015,1.02659 0.64029,2.05582 1.04246,3.05329 a 25.823333,25.823333 0 0 0 2.7014,4.9239 35.734625,35.734625 0 0 0 2.23308,2.92629 c 0.99219,1.17211 2.10079,2.35215 2.45533,3.84704 0.20373,0.86784 0.13494,1.77007 0.21961,2.64584 0.0847,0.87577 0.37306,1.82033 1.08743,2.3495 0.5133,0.37571 1.16682,0.48948 1.79388,0.59002 0.44714,0.0714 1.00806,0.0952 1.24354,-0.29369 a 1.17475,1.17475 0 0 0 0.12435,-0.51329 l 0.10584,-1.29381 c 0.0238,-0.28046 0.12435,-0.63765 0.40216,-0.65088 0.27782,-0.0132 0.42334,0.35983 0.66146,0.52917 0.3175,0.22225 0.79375,0 0.96838,-0.33602 a 1.6457083,1.6457083 0 0 0 0.0265,-1.13771 5.4054374,5.4054374 0 0 0 -2.77019,-3.43958 8.0750832,8.0750832 0 0 1 -1.35202,-0.70115 4.5799374,4.5799374 0 0 1 -1.05833,-1.34144 c -2.45798,-4.04019 -4.92655,-8.10419 -6.65692,-12.50685 a 9.3292082,9.3292082 0 0 1 -0.68792,-2.46327 c -0.082,-0.86519 0.0503,-1.73567 0.10848,-2.6035 a 14.816666,14.816666 0 0 0 -0.42862,-4.63815 3.6486041,3.6486041 0 0 0 -0.4445,-1.12712 c -0.71173,-1.08479 -2.38125,-1.24354 -3.43959,-0.49742 a 3.5480625,3.5480625 0 0 0 -1.37318,2.5056 c -0.0767,0.87842 0.43127,1.78859 0.68527,2.60615 q 1.1721,3.78883 2.35214,7.56708 z"
       fill="#a1616a"
       id="path229"
       style="stroke-width:0.264583" />
    <path
       d="m 327.74866,72.54383 c 0.0397,-0.41275 -0.33072,-0.79375 -0.75141,-1.05833 a 9.9483332,9.9483332 0 0 1 -1.27265,-0.77788 c -0.37571,-0.32544 -0.58208,-0.74877 -0.95779,-1.07421 a 4.2571458,4.2571458 0 0 0 -1.42875,-0.71173 10.879667,10.879667 0 0 0 -3.41842,-0.61118 c -1.17739,0 -2.38125,0.26458 -3.2676,0.86518 a 1.9341041,1.9341041 0 0 0 -0.55563,0.52917 2.270125,2.270125 0 0 0 -0.26458,0.82021 16.187208,16.187208 0 0 1 -0.8546,2.59556 c -0.36777,0.93398 -0.75936,1.90236 -1.62454,2.62467 -0.92605,0.76994 -2.34157,1.21444 -2.95275,2.14577 a 0.68791666,0.68791666 0 0 0 -0.13494,0.6006 c 0.0873,0.23548 0.36777,0.39688 0.62706,0.54505 1.50283,0.86254 2.79929,1.98172 3.46604,3.31787 0.66675,1.33615 0.64823,2.91042 -0.30162,4.14073 -0.34925,0.45508 -0.83079,0.99483 -0.48948,1.45256 0.52916,0.69586 2.29923,0.29633 2.71198,1.03188 0.12964,0.23548 0.0529,0.5027 0.0529,0.75935 0,0.77258 0.74348,1.45785 1.64571,1.81504 0.90223,0.35719 1.94733,0.44186 2.96333,0.48684 a 2.587625,2.587625 0 0 0 0.0741,-1.91823 0.77258332,0.77258332 0 0 1 -0.0767,-0.43657 1.0583333,1.0583333 0 0 1 0.34131,-0.41804 c 1.08479,-1.02658 0.85461,-2.53471 0.20373,-3.75444 -0.65087,-1.21972 -1.66687,-2.33362 -2.04523,-3.61685 -0.18785,-0.63764 -0.18785,-1.35467 0.3175,-1.88383 a 6.3632291,6.3632291 0 0 1 0.93398,-0.67998 3.5295416,3.5295416 0 0 0 1.30704,-1.64042 c 0.30427,-0.84402 0.26459,-1.85208 1.14829,-2.42094 0.84932,-0.52916 2.04259,-0.3757 2.98186,-0.73818 0.72231,-0.28575 1.56369,-1.38377 1.62189,-1.98967 z"
       fill="#464353"
       id="path231"
       style="stroke-width:0.264583" />
    <path
       d="m 104.51009,192.20972 c -4.0349,-1.66952 -5.220231,-2.87602 -5.220231,-5.29166 0,-1.85209 0.814921,-3.98992 4.386791,-3.98992 a 10.072687,10.072687 0 0 1 5.57742,1.5875 l 1.16152,-3.07181 c -1.34673,-0.79375 -3.24644,-1.53194 -6.02986,-1.62455 v -4.49791 h -2.34685 v 4.68312 c -4.26773,0.69586 -6.738938,3.61686 -6.738938,7.46654 0,4.0349 2.38125,6.17009 7.122588,8.02482 3.43429,1.39964 5.23081,2.97656 5.23081,5.52714 0,2.64584 -2.22515,4.54554 -5.51921,4.54554 -2.595563,0 -5.53773,-0.88106 -7.207251,-1.99495 l -1.113895,3.1062 c 1.624541,1.16153 4.407958,1.99496 7.096126,2.04259 v 4.68312 h 3.99256 v -4.82335 c 4.7625,-0.79375 7.32631,-4.23333 7.32631,-7.88458 0,-4.1275 -2.93952,-6.5405 -7.71789,-8.48784 z"
       fill="url(#afa9d3b0-698e-4c8c-85f1-7e162fccf1ba-199)"
       id="path233"
       style="fill:url(#afa9d3b0-698e-4c8c-85f1-7e162fccf1ba-199);stroke-width:0.264583" />
    <path
       d="m 100.91969,212.34716 v -4.68313 c -2.688165,-0.0476 -5.471581,-0.88106 -7.096123,-2.04258 l 1.113896,-3.10621 c 1.669521,1.1139 4.611687,1.99496 7.207247,1.99496 3.29407,0 5.50863,-1.89971 5.50863,-4.54554 0,-2.55058 -1.80711,-4.1275 -5.2414,-5.51921 -4.730748,-1.85208 -7.122581,-3.98992 -7.122581,-8.02481 0,-3.84969 2.471208,-6.77069 6.738941,-7.46654 v -4.68313 h 2.34685 v 4.49792 c 2.78342,0.0926 4.68313,0.83344 6.02985,1.62454 l -1.16152,3.05858 a 10.072687,10.072687 0 0 0 -5.57741,-1.5875 c -3.57188,0 -4.386795,2.13519 -4.386795,3.98992 0,2.41035 1.185335,3.61685 5.220225,5.29167 4.77838,1.94733 7.7179,4.36033 7.7179,8.48783 0,3.66448 -2.55058,7.09613 -7.32631,7.88458 v 4.82865 z"
       fill="#6c63ff"
       id="path235"
       style="stroke-width:0.264583" />
  </g>
</svg>
